# Blender 5.1.0
# www.blender.org
o Cube
v 0.920000 1.000000 0.920000
v 0.920000 0.920000 1.000000
v 1.000000 0.920000 0.920000
v 0.920000 0.989312 0.959948
v 0.959948 0.989312 0.920000
v 0.958257 0.978931 0.958257
v 0.959948 0.920000 0.989312
v 0.920000 0.959948 0.989312
v 0.958257 0.958257 0.978931
v 0.989312 0.959948 0.920000
v 0.989312 0.920000 0.959948
v 0.978931 0.958257 0.958257
v 0.920000 0.920000 -1.000000
v 0.920000 1.000000 -0.920000
v 1.000000 0.920000 -0.920000
v 0.920000 0.959948 -0.989312
v 0.959948 0.920000 -0.989312
v 0.958257 0.958257 -0.978931
v 0.959948 0.989312 -0.920000
v 0.920000 0.989312 -0.959948
v 0.958257 0.978931 -0.958257
v 0.989312 0.920000 -0.959948
v 0.989312 0.959948 -0.920000
v 0.978931 0.958257 -0.958257
v 1.000000 -0.920000 0.920000
v 0.920000 -0.920000 1.000000
v 0.920000 -1.000000 0.920000
v 0.989312 -0.920000 0.959948
v 0.989312 -0.959948 0.920000
v 0.978931 -0.958257 0.958257
v 0.920000 -0.959948 0.989312
v 0.959948 -0.920000 0.989312
v 0.958257 -0.958257 0.978931
v 0.959948 -0.989312 0.920000
v 0.920000 -0.989312 0.959948
v 0.958257 -0.978931 0.958257
v 1.000000 -0.920000 -0.920000
v 0.920000 -1.000000 -0.920000
v 0.920000 -0.920000 -1.000000
v 0.989312 -0.959948 -0.920000
v 0.989312 -0.920000 -0.959948
v 0.978931 -0.958257 -0.958257
v 0.920000 -0.989312 -0.959948
v 0.959948 -0.989312 -0.920000
v 0.958257 -0.978931 -0.958257
v 0.959948 -0.920000 -0.989312
v 0.920000 -0.959948 -0.989312
v 0.958257 -0.958257 -0.978931
v -0.920000 1.000000 0.920000
v -1.000000 0.920000 0.920000
v -0.920000 0.920000 1.000000
v -0.959948 0.989312 0.920000
v -0.920000 0.989312 0.959948
v -0.958257 0.978931 0.958257
v -0.989312 0.920000 0.959948
v -0.989312 0.959948 0.920000
v -0.978931 0.958257 0.958257
v -0.920000 0.959948 0.989312
v -0.959948 0.920000 0.989312
v -0.958257 0.958257 0.978931
v -1.000000 0.920000 -0.920000
v -0.920000 1.000000 -0.920000
v -0.920000 0.920000 -1.000000
v -0.989312 0.959948 -0.920000
v -0.989312 0.920000 -0.959948
v -0.978931 0.958257 -0.958257
v -0.920000 0.989312 -0.959948
v -0.959948 0.989312 -0.920000
v -0.958257 0.978931 -0.958257
v -0.959948 0.920000 -0.989312
v -0.920000 0.959948 -0.989312
v -0.958257 0.958257 -0.978931
v -1.000000 -0.920000 0.920000
v -0.920000 -1.000000 0.920000
v -0.920000 -0.920000 1.000000
v -0.989312 -0.959948 0.920000
v -0.989312 -0.920000 0.959948
v -0.978931 -0.958257 0.958257
v -0.920000 -0.989312 0.959948
v -0.959948 -0.989312 0.920000
v -0.958257 -0.978931 0.958257
v -0.959948 -0.920000 0.989312
v -0.920000 -0.959948 0.989312
v -0.958257 -0.958257 0.978931
v -0.920000 -0.920000 -1.000000
v -0.920000 -1.000000 -0.920000
v -1.000000 -0.920000 -0.920000
v -0.920000 -0.959948 -0.989312
v -0.959948 -0.920000 -0.989312
v -0.958257 -0.958257 -0.978931
v -0.959948 -0.989312 -0.920000
v -0.920000 -0.989312 -0.959948
v -0.958257 -0.978931 -0.958257
v -0.989312 -0.920000 -0.959948
v -0.989312 -0.959948 -0.920000
v -0.978931 -0.958257 -0.958257
vn 0.1280 0.9835 0.1280
vn 0.1280 0.1280 0.9835
vn 0.9835 0.1280 0.1280
vn 0.1216 0.8623 0.4916
vn 0.4916 0.8623 0.1216
vn 0.4488 0.7727 0.4488
vn 0.4916 0.1216 0.8623
vn 0.1216 0.4916 0.8623
vn 0.4488 0.4488 0.7727
vn 0.8623 0.4916 0.1216
vn 0.8623 0.1216 0.4916
vn 0.7727 0.4488 0.4488
vn 0.1280 0.1280 -0.9835
vn 0.1280 0.9835 -0.1280
vn 0.9835 0.1280 -0.1280
vn 0.1216 0.4916 -0.8623
vn 0.4916 0.1216 -0.8623
vn 0.4488 0.4488 -0.7727
vn 0.4916 0.8623 -0.1216
vn 0.1216 0.8623 -0.4916
vn 0.4488 0.7727 -0.4488
vn 0.8623 0.1216 -0.4916
vn 0.8623 0.4916 -0.1216
vn 0.7727 0.4488 -0.4488
vn 0.9835 -0.1280 0.1280
vn 0.1280 -0.1280 0.9835
vn 0.1280 -0.9835 0.1280
vn 0.8623 -0.1216 0.4916
vn 0.8623 -0.4916 0.1216
vn 0.7727 -0.4488 0.4488
vn 0.1216 -0.4916 0.8623
vn 0.4916 -0.1216 0.8623
vn 0.4488 -0.4488 0.7727
vn 0.4916 -0.8623 0.1216
vn 0.1216 -0.8623 0.4916
vn 0.4488 -0.7727 0.4488
vn 0.9835 -0.1280 -0.1280
vn 0.1280 -0.9835 -0.1280
vn 0.1280 -0.1280 -0.9835
vn 0.8623 -0.4916 -0.1216
vn 0.8623 -0.1216 -0.4916
vn 0.7727 -0.4488 -0.4488
vn 0.1216 -0.8623 -0.4916
vn 0.4916 -0.8623 -0.1216
vn 0.4488 -0.7727 -0.4488
vn 0.4916 -0.1216 -0.8623
vn 0.1216 -0.4916 -0.8623
vn 0.4488 -0.4488 -0.7727
vn -0.1280 0.9835 0.1280
vn -0.9835 0.1280 0.1280
vn -0.1280 0.1280 0.9835
vn -0.4916 0.8623 0.1216
vn -0.1216 0.8623 0.4916
vn -0.4488 0.7727 0.4488
vn -0.8623 0.1216 0.4916
vn -0.8623 0.4916 0.1216
vn -0.7727 0.4488 0.4488
vn -0.1216 0.4916 0.8623
vn -0.4916 0.1216 0.8623
vn -0.4488 0.4488 0.7727
vn -0.9835 0.1280 -0.1280
vn -0.1280 0.9835 -0.1280
vn -0.1280 0.1280 -0.9835
vn -0.8623 0.4916 -0.1216
vn -0.8623 0.1216 -0.4916
vn -0.7727 0.4488 -0.4488
vn -0.1216 0.8623 -0.4916
vn -0.4916 0.8623 -0.1216
vn -0.4488 0.7727 -0.4488
vn -0.4916 0.1216 -0.8623
vn -0.1216 0.4916 -0.8623
vn -0.4488 0.4488 -0.7727
vn -0.9835 -0.1280 0.1280
vn -0.1280 -0.9835 0.1280
vn -0.1280 -0.1280 0.9835
vn -0.8623 -0.4916 0.1216
vn -0.8623 -0.1216 0.4916
vn -0.7727 -0.4488 0.4488
vn -0.1216 -0.8623 0.4916
vn -0.4916 -0.8623 0.1216
vn -0.4488 -0.7727 0.4488
vn -0.4916 -0.1216 0.8623
vn -0.1216 -0.4916 0.8623
vn -0.4488 -0.4488 0.7727
vn -0.1280 -0.1280 -0.9835
vn -0.1280 -0.9835 -0.1280
vn -0.9835 -0.1280 -0.1280
vn -0.1216 -0.4916 -0.8623
vn -0.4916 -0.1216 -0.8623
vn -0.4488 -0.4488 -0.7727
vn -0.4916 -0.8623 -0.1216
vn -0.1216 -0.8623 -0.4916
vn -0.4488 -0.7727 -0.4488
vn -0.8623 -0.1216 -0.4916
vn -0.8623 -0.4916 -0.1216
vn -0.7727 -0.4488 -0.4488
s 1
f 4//4 5//5 1//1
f 8//8 6//6 4//4
f 7//7 8//8 2//2
f 7//7 12//12 9//9
f 10//10 11//11 3//3
f 5//5 12//12 10//10
f 6//6 9//9 12//12
f 16//16 17//17 13//13
f 16//16 21//21 18//18
f 19//19 20//20 14//14
f 23//23 21//21 19//19
f 22//22 23//23 15//15
f 17//17 24//24 22//22
f 18//18 21//21 24//24
f 28//28 29//29 25//25
f 32//32 30//30 28//28
f 31//31 32//32 26//26
f 31//31 36//36 33//33
f 34//34 35//35 27//27
f 29//29 36//36 34//34
f 30//30 33//33 36//36
f 40//40 41//41 37//37
f 44//44 42//42 40//40
f 43//43 44//44 38//38
f 47//47 45//45 43//43
f 46//46 47//47 39//39
f 46//46 42//42 48//48
f 42//42 45//45 48//48
f 52//52 53//53 49//49
f 56//56 54//54 52//52
f 55//55 56//56 50//50
f 59//59 57//57 55//55
f 58//58 59//59 51//51
f 58//58 54//54 60//60
f 54//54 57//57 60//60
f 64//64 65//65 61//61
f 68//68 66//66 64//64
f 67//67 68//68 62//62
f 71//71 69//69 67//67
f 70//70 71//71 63//63
f 70//70 66//66 72//72
f 66//66 69//69 72//72
f 76//76 77//77 73//73
f 80//80 78//78 76//76
f 79//79 80//80 74//74
f 83//83 81//81 79//79
f 82//82 83//83 75//75
f 82//82 78//78 84//84
f 78//78 81//81 84//84
f 88//88 89//89 85//85
f 88//88 93//93 90//90
f 91//91 92//92 86//86
f 95//95 93//93 91//91
f 94//94 95//95 87//87
f 89//89 96//96 94//94
f 90//90 93//93 96//96
f 85//85 70//70 63//63
f 89//89 65//65 70//70
f 94//94 61//61 65//65
f 63//63 16//16 13//13
f 71//71 20//20 16//16
f 67//67 14//14 20//20
f 15//15 10//10 3//3
f 23//23 5//5 10//10
f 19//19 1//1 5//5
f 74//74 91//91 86//86
f 80//80 95//95 91//91
f 76//76 87//87 95//95
f 38//38 34//34 27//27
f 44//44 29//29 34//34
f 40//40 25//25 29//29
f 62//62 52//52 49//49
f 68//68 56//56 52//52
f 64//64 50//50 56//56
f 75//75 31//31 26//26
f 83//83 35//35 31//31
f 79//79 27//27 35//35
f 26//26 7//7 2//2
f 32//32 11//11 7//7
f 28//28 3//3 11//11
f 39//39 88//88 85//85
f 47//47 92//92 88//88
f 43//43 86//86 92//92
f 51//51 82//82 75//75
f 59//59 77//77 82//82
f 55//55 73//73 77//77
f 2//2 58//58 51//51
f 8//8 53//53 58//58
f 4//4 49//49 53//53
f 13//13 46//46 39//39
f 17//17 41//41 46//46
f 22//22 37//37 41//41
f 49//49 14//14 62//62
f 3//3 37//37 15//15
f 51//51 26//26 2//2
f 13//13 85//85 63//63
f 27//27 86//86 38//38
f 73//73 61//61 87//87
f 4//4 6//6 5//5
f 8//8 9//9 6//6
f 7//7 9//9 8//8
f 7//7 11//11 12//12
f 10//10 12//12 11//11
f 5//5 6//6 12//12
f 16//16 18//18 17//17
f 16//16 20//20 21//21
f 19//19 21//21 20//20
f 23//23 24//24 21//21
f 22//22 24//24 23//23
f 17//17 18//18 24//24
f 28//28 30//30 29//29
f 32//32 33//33 30//30
f 31//31 33//33 32//32
f 31//31 35//35 36//36
f 34//34 36//36 35//35
f 29//29 30//30 36//36
f 40//40 42//42 41//41
f 44//44 45//45 42//42
f 43//43 45//45 44//44
f 47//47 48//48 45//45
f 46//46 48//48 47//47
f 46//46 41//41 42//42
f 52//52 54//54 53//53
f 56//56 57//57 54//54
f 55//55 57//57 56//56
f 59//59 60//60 57//57
f 58//58 60//60 59//59
f 58//58 53//53 54//54
f 64//64 66//66 65//65
f 68//68 69//69 66//66
f 67//67 69//69 68//68
f 71//71 72//72 69//69
f 70//70 72//72 71//71
f 70//70 65//65 66//66
f 76//76 78//78 77//77
f 80//80 81//81 78//78
f 79//79 81//81 80//80
f 83//83 84//84 81//81
f 82//82 84//84 83//83
f 82//82 77//77 78//78
f 88//88 90//90 89//89
f 88//88 92//92 93//93
f 91//91 93//93 92//92
f 95//95 96//96 93//93
f 94//94 96//96 95//95
f 89//89 90//90 96//96
f 85//85 89//89 70//70
f 89//89 94//94 65//65
f 94//94 87//87 61//61
f 63//63 71//71 16//16
f 71//71 67//67 20//20
f 67//67 62//62 14//14
f 15//15 23//23 10//10
f 23//23 19//19 5//5
f 19//19 14//14 1//1
f 74//74 80//80 91//91
f 80//80 76//76 95//95
f 76//76 73//73 87//87
f 38//38 44//44 34//34
f 44//44 40//40 29//29
f 40//40 37//37 25//25
f 62//62 68//68 52//52
f 68//68 64//64 56//56
f 64//64 61//61 50//50
f 75//75 83//83 31//31
f 83//83 79//79 35//35
f 79//79 74//74 27//27
f 26//26 32//32 7//7
f 32//32 28//28 11//11
f 28//28 25//25 3//3
f 39//39 47//47 88//88
f 47//47 43//43 92//92
f 43//43 38//38 86//86
f 51//51 59//59 82//82
f 59//59 55//55 77//77
f 55//55 50//50 73//73
f 2//2 8//8 58//58
f 8//8 4//4 53//53
f 4//4 1//1 49//49
f 13//13 17//17 46//46
f 17//17 22//22 41//41
f 22//22 15//15 37//37
f 49//49 1//1 14//14
f 3//3 25//25 37//37
f 51//51 75//75 26//26
f 13//13 39//39 85//85
f 27//27 74//74 86//86
f 73//73 50//50 61//61
