# Blender 5.1.0
# www.blender.org
o Suzanne
v 0.437500 -0.765625 0.164062
v -0.437500 -0.765625 0.164062
v 0.500000 -0.687500 0.093750
v -0.500000 -0.687500 0.093750
v 0.546875 -0.578125 0.054688
v -0.546875 -0.578125 0.054688
v 0.351562 -0.617188 -0.023438
v -0.351562 -0.617188 -0.023438
v 0.351562 -0.718750 0.031250
v -0.351562 -0.718750 0.031250
v 0.351562 -0.781250 0.132812
v -0.351562 -0.781250 0.132812
v 0.273438 -0.796875 0.164062
v -0.273438 -0.796875 0.164062
v 0.203125 -0.742188 0.093750
v -0.203125 -0.742188 0.093750
v 0.156250 -0.648438 0.054688
v -0.156250 -0.648438 0.054688
v 0.078125 -0.656250 0.242188
v -0.078125 -0.656250 0.242188
v 0.140625 -0.742188 0.242188
v -0.140625 -0.742188 0.242188
v 0.242188 -0.796875 0.242188
v -0.242188 -0.796875 0.242188
v 0.273438 -0.796875 0.328125
v -0.273438 -0.796875 0.328125
v 0.203125 -0.742188 0.390625
v -0.203125 -0.742188 0.390625
v 0.156250 -0.648438 0.437500
v -0.156250 -0.648438 0.437500
v 0.351562 -0.617188 0.515625
v -0.351562 -0.617188 0.515625
v 0.351562 -0.718750 0.453125
v -0.351562 -0.718750 0.453125
v 0.351562 -0.781250 0.359375
v -0.351562 -0.781250 0.359375
v 0.437500 -0.765625 0.328125
v -0.437500 -0.765625 0.328125
v 0.500000 -0.687500 0.390625
v -0.500000 -0.687500 0.390625
v 0.546875 -0.578125 0.437500
v -0.546875 -0.578125 0.437500
v 0.625000 -0.562500 0.242188
v -0.625000 -0.562500 0.242188
v 0.562500 -0.671875 0.242188
v -0.562500 -0.671875 0.242188
v 0.468750 -0.757812 0.242188
v -0.468750 -0.757812 0.242188
v 0.476562 -0.773438 0.242188
v -0.476562 -0.773438 0.242188
v 0.445312 -0.781250 0.335938
v -0.445312 -0.781250 0.335938
v 0.351562 -0.804688 0.375000
v -0.351562 -0.804688 0.375000
v 0.265625 -0.820312 0.335938
v -0.265625 -0.820312 0.335938
v 0.226562 -0.820312 0.242188
v -0.226562 -0.820312 0.242188
v 0.265625 -0.820312 0.156250
v -0.265625 -0.820312 0.156250
v 0.351562 -0.828125 0.242188
v -0.351562 -0.828125 0.242188
v 0.351562 -0.804688 0.117188
v -0.351562 -0.804688 0.117188
v 0.445312 -0.781250 0.156250
v -0.445312 -0.781250 0.156250
v 0.000000 -0.742188 0.429688
v 0.000000 -0.820312 0.351562
v 0.000000 -0.734375 -0.679688
v 0.000000 -0.781250 -0.320312
v 0.000000 -0.796875 -0.187500
v 0.000000 -0.718750 -0.773438
v 0.000000 -0.601562 0.406250
v 0.000000 -0.570312 0.570312
v 0.000000 0.546875 0.898438
v 0.000000 0.851562 0.562500
v 0.000000 0.828125 0.070312
v 0.000000 0.351562 -0.382812
v 0.203125 -0.562500 -0.187500
v -0.203125 -0.562500 -0.187500
v 0.312500 -0.570312 -0.437500
v -0.312500 -0.570312 -0.437500
v 0.351562 -0.570312 -0.695312
v -0.351562 -0.570312 -0.695312
v 0.367188 -0.531250 -0.890625
v -0.367188 -0.531250 -0.890625
v 0.328125 -0.523438 -0.945312
v -0.328125 -0.523438 -0.945312
v 0.179688 -0.554688 -0.968750
v -0.179688 -0.554688 -0.968750
v 0.000000 -0.578125 -0.984375
v 0.437500 -0.531250 -0.140625
v -0.437500 -0.531250 -0.140625
v 0.632812 -0.539062 -0.039062
v -0.632812 -0.539062 -0.039062
v 0.828125 -0.445312 0.148438
v -0.828125 -0.445312 0.148438
v 0.859375 -0.593750 0.429688
v -0.859375 -0.593750 0.429688
v 0.710938 -0.625000 0.484375
v -0.710938 -0.625000 0.484375
v 0.492188 -0.687500 0.601562
v -0.492188 -0.687500 0.601562
v 0.320312 -0.734375 0.757812
v -0.320312 -0.734375 0.757812
v 0.156250 -0.757812 0.718750
v -0.156250 -0.757812 0.718750
v 0.062500 -0.750000 0.492188
v -0.062500 -0.750000 0.492188
v 0.164062 -0.773438 0.414062
v -0.164062 -0.773438 0.414062
v 0.125000 -0.765625 0.304688
v -0.125000 -0.765625 0.304688
v 0.203125 -0.742188 0.093750
v -0.203125 -0.742188 0.093750
v 0.375000 -0.703125 0.015625
v -0.375000 -0.703125 0.015625
v 0.492188 -0.671875 0.062500
v -0.492188 -0.671875 0.062500
v 0.625000 -0.648438 0.187500
v -0.625000 -0.648438 0.187500
v 0.640625 -0.648438 0.296875
v -0.640625 -0.648438 0.296875
v 0.601562 -0.664062 0.375000
v -0.601562 -0.664062 0.375000
v 0.429688 -0.718750 0.437500
v -0.429688 -0.718750 0.437500
v 0.250000 -0.757812 0.468750
v -0.250000 -0.757812 0.468750
v 0.000000 -0.734375 -0.765625
v 0.109375 -0.734375 -0.718750
v -0.109375 -0.734375 -0.718750
v 0.117188 -0.710938 -0.835938
v -0.117188 -0.710938 -0.835938
v 0.062500 -0.695312 -0.882812
v -0.062500 -0.695312 -0.882812
v 0.000000 -0.687500 -0.890625
v 0.000000 -0.750000 -0.195312
v 0.000000 -0.742188 -0.140625
v 0.101562 -0.742188 -0.148438
v -0.101562 -0.742188 -0.148438
v 0.125000 -0.750000 -0.226562
v -0.125000 -0.750000 -0.226562
v 0.085938 -0.742188 -0.289062
v -0.085938 -0.742188 -0.289062
v 0.398438 -0.671875 -0.046875
v -0.398438 -0.671875 -0.046875
v 0.617188 -0.625000 0.054688
v -0.617188 -0.625000 0.054688
v 0.726562 -0.601562 0.203125
v -0.726562 -0.601562 0.203125
v 0.742188 -0.656250 0.375000
v -0.742188 -0.656250 0.375000
v 0.687500 -0.726562 0.414062
v -0.687500 -0.726562 0.414062
v 0.437500 -0.796875 0.546875
v -0.437500 -0.796875 0.546875
v 0.312500 -0.835938 0.640625
v -0.312500 -0.835938 0.640625
v 0.203125 -0.851562 0.617188
v -0.203125 -0.851562 0.617188
v 0.101562 -0.843750 0.429688
v -0.101562 -0.843750 0.429688
v 0.125000 -0.812500 -0.101562
v -0.125000 -0.812500 -0.101562
v 0.210938 -0.710938 -0.445312
v -0.210938 -0.710938 -0.445312
v 0.250000 -0.687500 -0.703125
v -0.250000 -0.687500 -0.703125
v 0.265625 -0.664062 -0.820312
v -0.265625 -0.664062 -0.820312
v 0.234375 -0.632812 -0.914062
v -0.234375 -0.632812 -0.914062
v 0.164062 -0.632812 -0.929688
v -0.164062 -0.632812 -0.929688
v 0.000000 -0.640625 -0.945312
v 0.000000 -0.726562 0.046875
v 0.000000 -0.765625 0.210938
v 0.328125 -0.742188 0.476562
v -0.328125 -0.742188 0.476562
v 0.164062 -0.750000 0.140625
v -0.164062 -0.750000 0.140625
v 0.132812 -0.757812 0.210938
v -0.132812 -0.757812 0.210938
v 0.117188 -0.734375 -0.687500
v -0.117188 -0.734375 -0.687500
v 0.078125 -0.750000 -0.445312
v -0.078125 -0.750000 -0.445312
v 0.000000 -0.750000 -0.445312
v 0.000000 -0.742188 -0.328125
v 0.093750 -0.781250 -0.273438
v -0.093750 -0.781250 -0.273438
v 0.132812 -0.796875 -0.226562
v -0.132812 -0.796875 -0.226562
v 0.109375 -0.781250 -0.132812
v -0.109375 -0.781250 -0.132812
v 0.039062 -0.781250 -0.125000
v -0.039062 -0.781250 -0.125000
v 0.000000 -0.828125 -0.203125
v 0.046875 -0.812500 -0.148438
v -0.046875 -0.812500 -0.148438
v 0.093750 -0.812500 -0.156250
v -0.093750 -0.812500 -0.156250
v 0.109375 -0.828125 -0.226562
v -0.109375 -0.828125 -0.226562
v 0.078125 -0.804688 -0.250000
v -0.078125 -0.804688 -0.250000
v 0.000000 -0.804688 -0.289062
v 0.257812 -0.554688 -0.312500
v -0.257812 -0.554688 -0.312500
v 0.164062 -0.710938 -0.242188
v -0.164062 -0.710938 -0.242188
v 0.179688 -0.710938 -0.312500
v -0.179688 -0.710938 -0.312500
v 0.234375 -0.554688 -0.250000
v -0.234375 -0.554688 -0.250000
v 0.000000 -0.687500 -0.875000
v 0.046875 -0.687500 -0.867188
v -0.046875 -0.687500 -0.867188
v 0.093750 -0.710938 -0.820312
v -0.093750 -0.710938 -0.820312
v 0.093750 -0.726562 -0.742188
v -0.093750 -0.726562 -0.742188
v 0.000000 -0.656250 -0.781250
v 0.093750 -0.664062 -0.750000
v -0.093750 -0.664062 -0.750000
v 0.093750 -0.640625 -0.812500
v -0.093750 -0.640625 -0.812500
v 0.046875 -0.632812 -0.851562
v -0.046875 -0.632812 -0.851562
v 0.000000 -0.632812 -0.859375
v 0.171875 -0.781250 0.218750
v -0.171875 -0.781250 0.218750
v 0.187500 -0.773438 0.156250
v -0.187500 -0.773438 0.156250
v 0.335938 -0.757812 0.429688
v -0.335938 -0.757812 0.429688
v 0.273438 -0.773438 0.421875
v -0.273438 -0.773438 0.421875
v 0.421875 -0.773438 0.398438
v -0.421875 -0.773438 0.398438
v 0.562500 -0.695312 0.351562
v -0.562500 -0.695312 0.351562
v 0.585938 -0.687500 0.289062
v -0.585938 -0.687500 0.289062
v 0.578125 -0.679688 0.195312
v -0.578125 -0.679688 0.195312
v 0.476562 -0.718750 0.101562
v -0.476562 -0.718750 0.101562
v 0.375000 -0.742188 0.062500
v -0.375000 -0.742188 0.062500
v 0.226562 -0.781250 0.109375
v -0.226562 -0.781250 0.109375
v 0.179688 -0.781250 0.296875
v -0.179688 -0.781250 0.296875
v 0.210938 -0.781250 0.375000
v -0.210938 -0.781250 0.375000
v 0.234375 -0.757812 0.359375
v -0.234375 -0.757812 0.359375
v 0.195312 -0.757812 0.296875
v -0.195312 -0.757812 0.296875
v 0.242188 -0.757812 0.125000
v -0.242188 -0.757812 0.125000
v 0.375000 -0.726562 0.085938
v -0.375000 -0.726562 0.085938
v 0.460938 -0.703125 0.117188
v -0.460938 -0.703125 0.117188
v 0.546875 -0.671875 0.210938
v -0.546875 -0.671875 0.210938
v 0.554688 -0.671875 0.281250
v -0.554688 -0.671875 0.281250
v 0.531250 -0.679688 0.335938
v -0.531250 -0.679688 0.335938
v 0.414062 -0.750000 0.390625
v -0.414062 -0.750000 0.390625
v 0.281250 -0.765625 0.398438
v -0.281250 -0.765625 0.398438
v 0.335938 -0.750000 0.406250
v -0.335938 -0.750000 0.406250
v 0.203125 -0.750000 0.171875
v -0.203125 -0.750000 0.171875
v 0.195312 -0.750000 0.226562
v -0.195312 -0.750000 0.226562
v 0.109375 -0.609375 0.460938
v -0.109375 -0.609375 0.460938
v 0.195312 -0.617188 0.664062
v -0.195312 -0.617188 0.664062
v 0.335938 -0.593750 0.687500
v -0.335938 -0.593750 0.687500
v 0.484375 -0.554688 0.554688
v -0.484375 -0.554688 0.554688
v 0.679688 -0.492188 0.453125
v -0.679688 -0.492188 0.453125
v 0.796875 -0.460938 0.406250
v -0.796875 -0.460938 0.406250
v 0.773438 -0.375000 0.164062
v -0.773438 -0.375000 0.164062
v 0.601562 -0.414062 0.000000
v -0.601562 -0.414062 0.000000
v 0.437500 -0.468750 -0.093750
v -0.437500 -0.468750 -0.093750
v 0.000000 -0.289062 0.898438
v 0.000000 0.078125 0.984375
v 0.000000 0.671875 -0.195312
v 0.000000 -0.187500 -0.460938
v 0.000000 -0.460938 -0.976562
v 0.000000 -0.343750 -0.804688
v 0.000000 -0.320312 -0.570312
v 0.000000 -0.281250 -0.484375
v 0.851562 -0.054688 0.234375
v -0.851562 -0.054688 0.234375
v 0.859375 0.046875 0.320312
v -0.859375 0.046875 0.320312
v 0.773438 0.437500 0.265625
v -0.773438 0.437500 0.265625
v 0.460938 0.703125 0.437500
v -0.460938 0.703125 0.437500
v 0.734375 -0.070312 -0.046875
v -0.734375 -0.070312 -0.046875
v 0.593750 0.164062 -0.125000
v -0.593750 0.164062 -0.125000
v 0.640625 0.429688 -0.007812
v -0.640625 0.429688 -0.007812
v 0.335938 0.664062 0.054688
v -0.335938 0.664062 0.054688
v 0.234375 -0.406250 -0.351562
v -0.234375 -0.406250 -0.351562
v 0.179688 -0.257812 -0.414062
v -0.179688 -0.257812 -0.414062
v 0.289062 -0.382812 -0.710938
v -0.289062 -0.382812 -0.710938
v 0.250000 -0.390625 -0.500000
v -0.250000 -0.390625 -0.500000
v 0.328125 -0.398438 -0.914062
v -0.328125 -0.398438 -0.914062
v 0.140625 -0.367188 -0.757812
v -0.140625 -0.367188 -0.757812
v 0.125000 -0.359375 -0.539062
v -0.125000 -0.359375 -0.539062
v 0.164062 -0.437500 -0.945312
v -0.164062 -0.437500 -0.945312
v 0.218750 -0.429688 -0.281250
v -0.218750 -0.429688 -0.281250
v 0.210938 -0.468750 -0.226562
v -0.210938 -0.468750 -0.226562
v 0.203125 -0.500000 -0.171875
v -0.203125 -0.500000 -0.171875
v 0.210938 -0.164062 -0.390625
v -0.210938 -0.164062 -0.390625
v 0.296875 0.265625 -0.312500
v -0.296875 0.265625 -0.312500
v 0.343750 0.539062 -0.148438
v -0.343750 0.539062 -0.148438
v 0.453125 0.382812 0.867188
v -0.453125 0.382812 0.867188
v 0.453125 0.070312 0.929688
v -0.453125 0.070312 0.929688
v 0.453125 -0.234375 0.851562
v -0.453125 -0.234375 0.851562
v 0.460938 -0.429688 0.523438
v -0.460938 -0.429688 0.523438
v 0.726562 -0.335938 0.406250
v -0.726562 -0.335938 0.406250
v 0.632812 -0.281250 0.453125
v -0.632812 -0.281250 0.453125
v 0.640625 -0.054688 0.703125
v -0.640625 -0.054688 0.703125
v 0.796875 -0.125000 0.562500
v -0.796875 -0.125000 0.562500
v 0.796875 0.117188 0.617188
v -0.796875 0.117188 0.617188
v 0.640625 0.195312 0.750000
v -0.640625 0.195312 0.750000
v 0.640625 0.445312 0.679688
v -0.640625 0.445312 0.679688
v 0.796875 0.359375 0.539062
v -0.796875 0.359375 0.539062
v 0.617188 0.585938 0.328125
v -0.617188 0.585938 0.328125
v 0.484375 0.546875 0.023438
v -0.484375 0.546875 0.023438
v 0.820312 0.203125 0.328125
v -0.820312 0.203125 0.328125
v 0.406250 -0.148438 -0.171875
v -0.406250 -0.148438 -0.171875
v 0.429688 0.210938 -0.195312
v -0.429688 0.210938 -0.195312
v 0.890625 0.234375 0.406250
v -0.890625 0.234375 0.406250
v 0.773438 0.125000 -0.140625
v -0.773438 0.125000 -0.140625
v 1.039062 0.328125 -0.101562
v -1.039062 0.328125 -0.101562
v 1.281250 0.429688 0.054688
v -1.281250 0.429688 0.054688
v 1.351562 0.421875 0.320312
v -1.351562 0.421875 0.320312
v 1.234375 0.421875 0.507812
v -1.234375 0.421875 0.507812
v 1.023438 0.312500 0.476562
v -1.023438 0.312500 0.476562
v 1.015625 0.289062 0.414062
v -1.015625 0.289062 0.414062
v 1.187500 0.390625 0.437500
v -1.187500 0.390625 0.437500
v 1.265625 0.406250 0.289062
v -1.265625 0.406250 0.289062
v 1.210938 0.406250 0.078125
v -1.210938 0.406250 0.078125
v 1.031250 0.304688 -0.039062
v -1.031250 0.304688 -0.039062
v 0.828125 0.132812 -0.070312
v -0.828125 0.132812 -0.070312
v 0.921875 0.218750 0.359375
v -0.921875 0.218750 0.359375
v 0.945312 0.289062 0.304688
v -0.945312 0.289062 0.304688
v 0.882812 0.210938 -0.023438
v -0.882812 0.210938 -0.023438
v 1.039062 0.367188 0.000000
v -1.039062 0.367188 0.000000
v 1.187500 0.445312 0.093750
v -1.187500 0.445312 0.093750
v 1.234375 0.445312 0.250000
v -1.234375 0.445312 0.250000
v 1.171875 0.437500 0.359375
v -1.171875 0.437500 0.359375
v 1.023438 0.359375 0.343750
v -1.023438 0.359375 0.343750
v 0.843750 0.210938 0.289062
v -0.843750 0.210938 0.289062
v 0.835938 0.273438 0.171875
v -0.835938 0.273438 0.171875
v 0.757812 0.273438 0.093750
v -0.757812 0.273438 0.093750
v 0.820312 0.273438 0.085938
v -0.820312 0.273438 0.085938
v 0.843750 0.273438 0.015625
v -0.843750 0.273438 0.015625
v 0.812500 0.273438 -0.015625
v -0.812500 0.273438 -0.015625
v 0.726562 0.070312 0.000000
v -0.726562 0.070312 0.000000
v 0.718750 0.171875 -0.023438
v -0.718750 0.171875 -0.023438
v 0.718750 0.187500 0.039062
v -0.718750 0.187500 0.039062
v 0.796875 0.210938 0.203125
v -0.796875 0.210938 0.203125
v 0.890625 0.265625 0.242188
v -0.890625 0.265625 0.242188
v 0.890625 0.320312 0.234375
v -0.890625 0.320312 0.234375
v 0.812500 0.320312 -0.015625
v -0.812500 0.320312 -0.015625
v 0.851562 0.320312 0.015625
v -0.851562 0.320312 0.015625
v 0.828125 0.320312 0.078125
v -0.828125 0.320312 0.078125
v 0.765625 0.320312 0.093750
v -0.765625 0.320312 0.093750
v 0.843750 0.320312 0.171875
v -0.843750 0.320312 0.171875
v 1.039062 0.414062 0.328125
v -1.039062 0.414062 0.328125
v 1.187500 0.484375 0.343750
v -1.187500 0.484375 0.343750
v 1.257812 0.492188 0.242188
v -1.257812 0.492188 0.242188
v 1.210938 0.484375 0.085938
v -1.210938 0.484375 0.085938
v 1.046875 0.421875 0.000000
v -1.046875 0.421875 0.000000
v 0.882812 0.265625 -0.015625
v -0.882812 0.265625 -0.015625
v 0.953125 0.343750 0.289062
v -0.953125 0.343750 0.289062
v 0.890625 0.328125 0.109375
v -0.890625 0.328125 0.109375
v 0.937500 0.335938 0.062500
v -0.937500 0.335938 0.062500
v 1.000000 0.367188 0.125000
v -1.000000 0.367188 0.125000
v 0.960938 0.351562 0.171875
v -0.960938 0.351562 0.171875
v 1.015625 0.375000 0.234375
v -1.015625 0.375000 0.234375
v 1.054688 0.382812 0.187500
v -1.054688 0.382812 0.187500
v 1.109375 0.390625 0.210938
v -1.109375 0.390625 0.210938
v 1.085938 0.390625 0.273438
v -1.085938 0.390625 0.273438
v 1.023438 0.484375 0.437500
v -1.023438 0.484375 0.437500
v 1.250000 0.546875 0.468750
v -1.250000 0.546875 0.468750
v 1.367188 0.500000 0.296875
v -1.367188 0.500000 0.296875
v 1.312500 0.531250 0.054688
v -1.312500 0.531250 0.054688
v 1.039062 0.492188 -0.085938
v -1.039062 0.492188 -0.085938
v 0.789062 0.328125 -0.125000
v -0.789062 0.328125 -0.125000
v 0.859375 0.382812 0.382812
v -0.859375 0.382812 0.382812
vn 0.6827 -0.7307 -0.0035
vn 0.6076 -0.6085 -0.5104
vn 0.8001 -0.5999 -0.0029
vn -0.6076 -0.6085 -0.5104
vn -0.6827 -0.7307 -0.0035
vn -0.8001 -0.5999 -0.0029
vn 0.8302 -0.4678 -0.3031
vn 0.8268 -0.4725 -0.3051
vn -0.8302 -0.4678 -0.3031
vn -0.8268 -0.4725 -0.3051
vn 0.4187 -0.4400 -0.7944
vn 0.4076 -0.4570 -0.7905
vn -0.4187 -0.4400 -0.7944
vn -0.4076 -0.4570 -0.7905
vn 0.5235 -0.7692 -0.3664
vn 0.0995 -0.6522 -0.7515
vn -0.0995 -0.6522 -0.7515
vn -0.5235 -0.7692 -0.3664
vn 0.1149 -0.8396 -0.5308
vn -0.1941 -0.6572 -0.7283
vn 0.1941 -0.6572 -0.7283
vn -0.1149 -0.8396 -0.5308
vn -0.2710 -0.4732 -0.8382
vn -0.2664 -0.4570 -0.8487
vn 0.2710 -0.4732 -0.8382
vn 0.2664 -0.4570 -0.8487
vn -0.6893 -0.7244 -0.0046
vn -0.7743 -0.5378 -0.3334
vn -0.6711 -0.6862 -0.2808
vn 0.6893 -0.7244 -0.0046
vn 0.7743 -0.5378 -0.3334
vn 0.7606 -0.5531 -0.3400
vn -0.4822 -0.8760 -0.0031
vn -0.4767 -0.8581 -0.1907
vn 0.4822 -0.8760 -0.0031
vn 0.6711 -0.6862 -0.2808
vn -0.6630 -0.6958 0.2763
vn 0.6630 -0.6958 0.2763
vn -0.7667 -0.5536 0.3251
vn 0.7667 -0.5536 0.3251
vn 0.7683 -0.5488 0.3293
vn 0.1031 -0.6644 0.7402
vn -0.2532 -0.5223 0.8143
vn -0.1894 -0.6667 0.7208
vn -0.1031 -0.6644 0.7402
vn 0.2532 -0.5223 0.8143
vn 0.2487 -0.5076 0.8249
vn 0.1086 -0.8204 0.5614
vn -0.0821 -0.7940 0.6023
vn -0.1086 -0.8204 0.5614
vn 0.1894 -0.6667 0.7208
vn 0.5355 -0.7538 0.3808
vn -0.5355 -0.7538 0.3808
vn -0.6102 -0.6181 0.4956
vn 0.6102 -0.6181 0.4956
vn 0.4171 -0.4854 0.7684
vn -0.4171 -0.4854 0.7684
vn -0.4059 -0.5014 0.7641
vn 0.8271 -0.4781 0.2956
vn -0.8271 -0.4781 0.2956
vn -0.8299 -0.4742 0.2940
vn 0.7880 0.5321 0.3098
vn 0.8334 0.4363 0.3392
vn 0.8400 0.4200 0.3436
vn -0.7880 0.5321 0.3098
vn -0.8334 0.4363 0.3392
vn -0.7816 0.5437 0.3058
vn 0.2041 0.5405 0.8162
vn 0.2067 0.5228 0.8270
vn 0.2074 0.5185 0.8296
vn -0.2041 0.5405 0.8162
vn -0.2067 0.5228 0.8270
vn -0.2037 0.5431 0.8146
vn -0.4331 0.4281 0.7932
vn -0.4120 0.4899 0.7683
vn -0.4056 0.5070 0.7605
vn 0.4331 0.4281 0.7932
vn 0.4120 0.4899 0.7683
vn 0.4381 0.4123 0.7988
vn -0.7988 0.5056 0.3261
vn -0.8503 0.4197 0.3175
vn -0.8642 0.3928 0.3143
vn 0.7988 0.5056 0.3261
vn 0.8503 0.4197 0.3175
vn 0.7861 0.5241 0.3276
vn -0.7909 0.5004 -0.3522
vn -0.8377 0.4240 -0.3441
vn -0.7783 0.5188 -0.3538
vn 0.8377 0.4240 -0.3441
vn 0.7909 0.5004 -0.3522
vn 0.7782 0.5188 -0.3538
vn -0.4331 0.4281 -0.7932
vn -0.4120 0.4899 -0.7683
vn -0.4381 0.4123 -0.7988
vn 0.4120 0.4899 -0.7683
vn 0.4331 0.4281 -0.7932
vn 0.4381 0.4123 -0.7988
vn 0.2041 0.5405 -0.8162
vn 0.2067 0.5228 -0.8270
vn 0.2037 0.5431 -0.8146
vn -0.2067 0.5228 -0.8270
vn -0.2041 0.5405 -0.8162
vn -0.2037 0.5431 -0.8146
vn 0.7757 0.5352 -0.3344
vn 0.8223 0.4342 -0.3678
vn 0.7683 0.5488 -0.3293
vn -0.8223 0.4342 -0.3678
vn -0.7757 0.5352 -0.3344
vn -0.7683 0.5488 -0.3293
vn 0.1836 -0.9830 -0.0053
vn 0.3574 -0.9268 -0.1156
vn 0.4008 -0.9162 -0.0019
vn -0.4008 -0.9162 -0.0019
vn -0.3574 -0.9268 -0.1156
vn -0.1836 -0.9830 -0.0053
vn 0.2070 -0.9616 -0.1803
vn -0.2070 -0.9616 -0.1803
vn 0.0167 -0.9941 -0.1071
vn -0.0167 -0.9941 -0.1071
vn -0.0624 -0.9981 -0.0008
vn 0.0624 -0.9981 -0.0008
vn 0.0232 -0.9943 0.1041
vn -0.0232 -0.9943 0.1041
vn 0.2074 -0.9634 0.1700
vn -0.2074 -0.9634 0.1700
vn 0.3535 -0.9288 0.1109
vn -0.3535 -0.9288 0.1109
vn 0.1554 -0.6323 -0.7590
vn -0.0000 -0.5120 -0.8590
vn 0.1829 -0.4590 -0.8694
vn -0.1554 -0.6323 -0.7590
vn -0.0000 -0.6316 -0.7753
vn 0.3502 -0.6847 -0.6392
vn 0.2303 -0.4447 -0.8656
vn -0.3502 -0.6847 -0.6392
vn -0.1829 -0.4590 -0.8694
vn 0.6728 -0.6614 -0.3316
vn 0.5788 -0.6404 -0.5049
vn -0.6728 -0.6614 -0.3316
vn -0.5788 -0.6404 -0.5049
vn 0.7608 -0.6484 0.0271
vn 0.5557 -0.8000 -0.2264
vn -0.5557 -0.8000 -0.2264
vn -0.7608 -0.6484 0.0271
vn 0.7725 -0.5906 0.2333
vn 0.7654 -0.6423 0.0399
vn -0.7654 -0.6423 0.0399
vn -0.7725 -0.5906 0.2333
vn 0.3258 -0.4717 -0.8194
vn 0.3179 -0.7133 -0.6245
vn 0.3747 -0.4040 -0.8345
vn -0.3179 -0.7133 -0.6245
vn -0.3258 -0.4717 -0.8194
vn -0.3747 -0.4040 -0.8345
vn 0.5328 -0.6413 -0.5522
vn 0.2982 -0.5854 -0.7539
vn -0.5328 -0.6413 -0.5522
vn -0.4991 -0.7807 -0.3761
vn 0.5666 -0.7598 -0.3188
vn 0.4991 -0.7807 -0.3761
vn -0.5666 -0.7598 -0.3188
vn 0.6299 -0.6958 -0.3452
vn 0.6945 -0.5937 -0.4064
vn -0.6299 -0.6958 -0.3452
vn -0.3708 -0.8840 -0.2848
vn 0.3127 -0.8860 0.3425
vn -0.6358 -0.5331 0.5581
vn -0.8227 -0.4395 0.3606
vn -0.6474 -0.5304 0.5473
vn 0.5492 -0.5841 0.5977
vn 0.6474 -0.5304 0.5473
vn 0.6358 -0.5331 0.5581
vn -0.5492 -0.5841 0.5977
vn -0.5620 -0.5772 0.5924
vn 0.6102 -0.6037 0.5130
vn 0.5620 -0.5772 0.5924
vn -0.6102 -0.6037 0.5130
vn -0.0438 -0.7489 0.6612
vn -0.0433 -0.7484 0.6618
vn -0.0486 -0.7532 0.6560
vn 0.0438 -0.7489 0.6612
vn 0.0433 -0.7484 0.6618
vn 0.0371 -0.7428 0.6685
vn -0.6782 -0.5988 0.4261
vn -0.7197 -0.6254 0.3015
vn -0.7104 -0.6494 0.2715
vn 0.6782 -0.5988 0.4261
vn 0.7197 -0.6254 0.3015
vn 0.6627 -0.5787 0.4754
vn -0.5892 -0.5892 0.5529
vn -0.6627 -0.5787 0.4754
vn 0.5892 -0.5892 0.5529
vn 0.5774 -0.5774 0.5774
vn 0.3773 -0.8113 -0.4466
vn 0.5941 -0.7081 -0.3817
vn 0.5907 -0.6356 -0.4971
vn -0.3773 -0.8113 -0.4466
vn -0.5941 -0.7081 -0.3817
vn -0.3505 -0.8379 -0.4185
vn 0.1092 -0.8670 -0.4862
vn 0.3505 -0.8379 -0.4185
vn -0.1092 -0.8670 -0.4862
vn -0.0790 -0.8337 -0.5465
vn 0.0509 -0.8540 -0.5178
vn -0.0630 -0.7923 -0.6069
vn 0.0790 -0.8337 -0.5465
vn -0.0509 -0.8540 -0.5178
vn -0.0237 -0.5970 -0.8019
vn -0.0577 -0.5850 -0.8090
vn 0.0237 -0.5970 -0.8019
vn 0.0630 -0.7923 -0.6069
vn 0.3708 -0.8840 -0.2848
vn 0.0547 -0.9840 -0.1695
vn 0.3588 -0.9258 -0.1192
vn -0.0279 -0.5019 -0.8645
vn 0.0577 -0.5850 -0.8090
vn 0.4602 -0.8723 -0.1651
vn -0.3588 -0.9258 -0.1192
vn 0.4279 -0.8156 -0.3895
vn -0.4602 -0.8723 -0.1651
vn 0.1590 -0.8519 -0.4989
vn -0.4279 -0.8156 -0.3895
vn -0.1355 -0.5811 -0.8025
vn 0.1355 -0.5811 -0.8025
vn -0.1590 -0.8519 -0.4989
vn -0.1598 -0.9067 0.3903
vn -0.3081 -0.9126 0.2689
vn -0.3460 -0.9084 0.2346
vn 0.3081 -0.9126 0.2689
vn 0.1598 -0.9067 0.3903
vn 0.3460 -0.9084 0.2346
vn 0.6819 -0.6709 -0.2915
vn -0.1854 -0.8485 -0.4956
vn -0.1729 -0.9353 -0.3087
vn -0.2242 -0.8769 -0.4252
vn 0.1729 -0.9353 -0.3087
vn -0.0000 -0.9750 -0.2220
vn 0.0585 -0.9949 -0.0818
vn -0.0585 -0.9949 -0.0818
vn -0.0051 -0.9839 -0.1789
vn -0.0000 -0.9749 -0.2225
vn 0.0051 -0.9839 -0.1789
vn 0.1288 -0.7537 -0.6445
vn -0.1288 -0.7537 -0.6445
vn 0.1307 -0.9388 -0.3187
vn -0.1307 -0.9388 -0.3187
vn 0.1460 -0.9820 -0.1202
vn 0.2905 -0.9567 0.0162
vn 0.1815 -0.9823 -0.0452
vn 0.3281 -0.9398 -0.0953
vn -0.1815 -0.9823 -0.0452
vn -0.2905 -0.9567 0.0162
vn -0.3281 -0.9398 -0.0953
vn -0.1460 -0.9820 -0.1202
vn -0.0000 -0.9985 0.0556
vn 0.1341 -0.9909 0.0063
vn 0.2111 -0.9763 0.0483
vn -0.1341 -0.9909 0.0063
vn -0.0000 -1.0000 -0.0000
vn -0.0000 -0.9994 -0.0341
vn -0.0000 -0.9984 -0.0561
vn 0.8077 0.0703 -0.5854
vn 0.8273 0.0151 -0.5616
vn 0.8447 -0.0445 -0.5335
vn -0.8273 0.0151 -0.5616
vn -0.8077 0.0703 -0.5854
vn -0.8447 -0.0445 -0.5335
vn 0.9405 0.2427 0.2377
vn 0.9556 0.1922 0.2233
vn 0.9256 0.2848 0.2492
vn -0.9405 0.2427 0.2377
vn -0.9556 0.1922 0.2233
vn -0.9635 0.1606 0.2141
vn 0.0776 0.4187 0.9048
vn 0.0907 0.4017 0.9113
vn 0.0693 0.4294 0.9004
vn -0.0776 0.4187 0.9048
vn -0.0907 0.4017 0.9113
vn -0.1018 0.3870 0.9165
vn -1.0000 -0.0000 -0.0000
vn 0.6709 -0.4150 0.6145
vn 0.6905 -0.4708 0.5492
vn 0.6643 -0.5132 0.5435
vn 0.4268 -0.2420 -0.8713
vn 0.4137 -0.1995 -0.8883
vn 0.4071 -0.1791 -0.8956
vn -0.4268 -0.2420 -0.8713
vn -0.4137 -0.1995 -0.8883
vn -0.4319 -0.2592 -0.8639
vn 0.3117 -0.7677 -0.5599
vn -0.0000 -0.8764 -0.4815
vn 0.2873 -0.7663 -0.5747
vn -0.3117 -0.7677 -0.5599
vn -0.1500 -0.8298 -0.5375
vn -0.6709 -0.4150 0.6145
vn -0.6447 -0.5094 0.5699
vn -0.6643 -0.5132 0.5435
vn 0.6447 -0.5094 0.5699
vn 0.1124 -0.5974 0.7940
vn 0.1013 -0.6092 0.7865
vn 0.0862 -0.6250 0.7759
vn -0.1013 -0.6092 0.7865
vn -0.1124 -0.5974 0.7940
vn -0.0862 -0.6250 0.7759
vn 0.7557 -0.5876 0.2892
vn 0.7609 -0.5783 0.2942
vn 0.7532 -0.5918 0.2870
vn -0.7557 -0.5876 0.2892
vn -0.7609 -0.5783 0.2942
vn -0.7639 -0.5729 0.2971
vn 0.3416 -0.7686 -0.5409
vn 0.1500 -0.8298 -0.5375
vn -0.3416 -0.7686 -0.5409
vn 0.0452 -0.9720 0.2306
vn 0.0457 -0.9719 0.2309
vn 0.0502 -0.9709 0.2343
vn -0.0452 -0.9720 0.2306
vn -0.0457 -0.9719 0.2309
vn -0.0375 -0.9737 0.2247
vn -0.0000 -0.9283 -0.3719
vn -0.1304 -0.7826 -0.6087
vn 0.1304 -0.7826 -0.6087
vn -0.5059 -0.8596 0.0716
vn 0.5059 -0.8596 0.0716
vn -0.5774 -0.5774 -0.5774
vn 0.5774 -0.5774 -0.5774
vn 0.5460 -0.7184 -0.4310
vn -0.2111 -0.9763 0.0483
vn -0.3319 -0.9404 0.0738
vn -0.3145 -0.9476 0.0565
vn 0.3145 -0.9476 0.0565
vn 0.8237 -0.4701 0.3171
vn 0.8215 -0.5390 0.1862
vn -0.8237 -0.4701 0.3171
vn -0.8215 -0.5390 0.1862
vn -0.8819 -0.4184 0.2171
vn 0.9306 -0.1263 0.3435
vn 0.8819 -0.4184 0.2171
vn -0.9306 -0.1263 0.3435
vn -0.9299 -0.3340 0.1539
vn 0.9034 -0.2404 0.3551
vn 0.9299 -0.3340 0.1539
vn -0.9034 -0.2404 0.3551
vn -0.0047 -0.9503 -0.3114
vn -0.0000 -0.4472 -0.8944
vn -0.3010 -0.1531 -0.9413
vn -0.0000 -0.2732 -0.9619
vn -0.1545 -0.9724 -0.1748
vn 0.0047 -0.9503 -0.3114
vn 0.1545 -0.9724 -0.1748
vn -0.3083 -0.9477 0.0825
vn -0.2671 -0.9494 0.1654
vn 0.3083 -0.9477 0.0825
vn 0.2671 -0.9494 0.1654
vn -0.0000 -0.9970 0.0776
vn -0.1582 -0.2713 0.9494
vn -0.0000 -0.2747 0.9615
vn 0.1582 -0.2713 0.9494
vn -0.6901 -0.1386 0.7103
vn -0.6918 -0.1356 0.7092
vn -0.6463 -0.2096 0.7337
vn 0.6918 -0.1356 0.7092
vn 0.6901 -0.1386 0.7103
vn 0.6463 -0.2096 0.7337
vn 1.0000 -0.0000 -0.0000
vn 0.3051 -0.1181 -0.9450
vn 0.3010 -0.1531 -0.9413
vn -0.3051 -0.1181 -0.9450
vn -0.0000 -0.9544 -0.2985
vn 0.0534 -0.9511 -0.3041
vn 0.0601 -0.9459 -0.3188
vn -0.0534 -0.9511 -0.3041
vn -0.0601 -0.9459 -0.3188
vn 0.1353 -0.9277 -0.3479
vn -0.1353 -0.9277 -0.3479
vn -0.4967 -0.8476 -0.1868
vn -0.5326 -0.7531 -0.3862
vn -0.4456 -0.8843 -0.1393
vn 0.5326 -0.7531 -0.3862
vn 0.4967 -0.8476 -0.1868
vn 0.4456 -0.8843 -0.1393
vn -0.2894 -0.9570 0.0185
vn -0.2651 -0.9618 0.0676
vn 0.2894 -0.9570 0.0185
vn 0.2651 -0.9618 0.0676
vn -0.1044 -0.9857 0.1319
vn -0.0694 -0.9910 0.1149
vn 0.1044 -0.9857 0.1319
vn -0.5926 -0.6514 -0.4738
vn -0.4895 -0.7666 -0.4156
vn 0.5926 -0.6514 -0.4738
vn 0.6684 -0.5849 -0.4595
vn 0.1195 -0.7430 -0.6585
vn -0.1599 -0.4478 -0.8797
vn -0.1195 -0.7430 -0.6585
vn 0.1599 -0.4478 -0.8797
vn 0.5357 -0.6450 -0.5450
vn -0.5357 -0.6450 -0.5450
vn 0.5275 -0.8064 -0.2674
vn -0.5275 -0.8064 -0.2674
vn 0.5744 -0.8184 0.0159
vn -0.5744 -0.8184 0.0159
vn 0.5218 -0.8240 0.2208
vn -0.5218 -0.8240 0.2208
vn -0.4994 -0.8041 0.3226
vn 0.3875 -0.5997 0.7001
vn 0.4994 -0.8041 0.3226
vn -0.3875 -0.5997 0.7001
vn -0.3504 -0.5770 0.7377
vn 0.1796 -0.5886 0.7882
vn 0.3504 -0.5770 0.7377
vn -0.1796 -0.5886 0.7882
vn 0.2408 -0.9039 0.3536
vn 0.0385 -0.9456 0.3231
vn 0.2607 -0.9020 0.3441
vn -0.0385 -0.9456 0.3231
vn -0.2408 -0.9039 0.3536
vn -0.2607 -0.9020 0.3441
vn 0.0492 -0.9474 0.3162
vn -0.0492 -0.9474 0.3162
vn 0.2417 -0.9245 -0.2948
vn 0.4635 -0.7933 -0.3949
vn 0.1744 -0.9474 -0.2683
vn -0.4635 -0.7933 -0.3949
vn -0.2417 -0.9245 -0.2948
vn -0.1744 -0.9474 -0.2683
vn 0.1454 -0.9426 -0.3005
vn 0.1133 -0.9426 -0.3142
vn -0.1454 -0.9426 -0.3005
vn -0.1133 -0.9426 -0.3142
vn -0.3766 -0.4035 -0.8339
vn -0.2840 -0.3871 -0.8772
vn -0.2639 -0.4130 -0.8717
vn 0.0631 -0.9468 -0.3156
vn 0.0590 -0.6005 -0.7975
vn 0.0823 -0.6175 -0.7822
vn 0.2639 -0.4130 -0.8717
vn -0.0590 -0.6005 -0.7975
vn 0.2840 -0.3871 -0.8772
vn -0.3812 -0.9135 -0.1418
vn -0.3465 -0.9031 -0.2538
vn -0.4229 -0.8997 -0.1078
vn 0.3465 -0.9031 -0.2538
vn 0.3812 -0.9135 -0.1418
vn 0.4229 -0.8997 -0.1078
vn -0.3088 -0.9505 -0.0357
vn -0.2692 -0.9614 -0.0577
vn 0.3088 -0.9505 -0.0357
vn -0.1444 -0.7972 0.5862
vn -0.0526 -0.9052 0.4217
vn -0.1653 -0.7751 0.6098
vn 0.0526 -0.9052 0.4217
vn 0.1444 -0.7972 0.5862
vn 0.1653 -0.7751 0.6098
vn 0.1431 -0.8169 0.5587
vn 0.1862 -0.8111 0.5545
vn -0.1431 -0.8169 0.5587
vn 0.4323 -0.6876 0.5833
vn 0.4482 -0.6832 0.5765
vn -0.1862 -0.8111 0.5545
vn -0.4323 -0.6876 0.5833
vn 0.6434 -0.6726 0.3656
vn 0.6881 -0.6614 0.2985
vn -0.6434 -0.6726 0.3656
vn -0.6881 -0.6614 0.2985
vn 0.5356 -0.7428 -0.4017
vn 0.7894 -0.5793 -0.2032
vn -0.7894 -0.5793 -0.2032
vn -0.5356 -0.7428 -0.4017
vn 0.8143 -0.5510 -0.1822
vn 0.8016 -0.5977 0.0110
vn -0.8016 -0.5977 0.0110
vn -0.8143 -0.5510 -0.1822
vn 0.7981 -0.6020 0.0243
vn -0.7981 -0.6020 0.0243
vn -0.5593 0.2767 0.7814
vn -0.7149 0.3121 0.6258
vn -0.4338 0.1481 0.8888
vn 0.7149 0.3121 0.6258
vn 0.5593 0.2767 0.7814
vn 0.4338 0.1481 0.8888
vn -0.7609 0.3741 0.5302
vn -0.8510 0.3744 0.3683
vn 0.8510 0.3744 0.3683
vn 0.7609 0.3741 0.5302
vn -0.2439 0.4338 0.8674
vn -0.2440 0.4337 0.8674
vn -0.2664 0.4127 0.8710
vn 0.2439 0.4338 0.8674
vn 0.2440 0.4337 0.8674
vn 0.2197 0.4557 0.8626
vn 0.5105 0.3145 0.8003
vn 0.5926 0.3039 0.7459
vn 0.5932 0.3063 0.7445
vn -0.5105 0.3145 0.8003
vn -0.5926 0.3039 0.7459
vn -0.4311 0.3064 0.8487
vn 0.3279 0.2974 0.8967
vn 0.4311 0.3064 0.8487
vn -0.3279 0.2974 0.8967
vn -0.3456 0.2192 0.9125
vn 0.3009 0.2412 0.9226
vn 0.3456 0.2192 0.9125
vn -0.3009 0.2412 0.9226
vn 0.8223 0.5533 0.1332
vn 0.8720 0.4753 0.1176
vn 0.8873 0.4412 0.1343
vn -0.8223 0.5533 0.1332
vn -0.8720 0.4753 0.1176
vn -0.8185 0.5618 0.1201
vn 0.5235 0.4923 -0.6954
vn 0.4677 0.3876 -0.7944
vn 0.5108 0.5450 -0.6649
vn -0.4677 0.3876 -0.7944
vn -0.5235 0.4923 -0.6954
vn -0.5108 0.5450 -0.6649
vn 0.4565 0.3930 -0.7982
vn 0.3170 0.5329 -0.7845
vn -0.3170 0.5329 -0.7845
vn -0.4565 0.3930 -0.7982
vn 0.2693 0.8030 -0.5316
vn 0.2771 0.9078 -0.3147
vn -0.0000 0.9770 -0.2133
vn -0.2693 0.8030 -0.5316
vn -0.2771 0.9078 -0.3147
vn -0.2648 0.6885 -0.6752
vn 0.1514 0.9769 -0.1510
vn -0.0000 0.9548 -0.2974
vn -0.1514 0.9769 -0.1510
vn -0.0162 0.9048 -0.4256
vn -0.0000 0.8262 -0.5633
vn 0.0162 0.9048 -0.4256
vn 0.1174 0.1823 -0.9762
vn -0.0000 0.1214 -0.9926
vn 0.1340 0.2183 -0.9666
vn -0.1174 0.1823 -0.9762
vn -0.1340 0.2183 -0.9666
vn 0.1196 0.2283 -0.9662
vn 0.1260 0.2406 -0.9624
vn -0.1196 0.2283 -0.9662
vn -0.1260 0.2406 -0.9624
vn 0.9379 0.3133 0.1489
vn 0.9396 0.3041 0.1573
vn 0.9328 0.3203 0.1653
vn -0.9396 0.3041 0.1573
vn -0.9379 0.3133 0.1489
vn -0.9328 0.3203 0.1653
vn 0.9297 0.3354 0.1525
vn 0.9189 0.3665 0.1460
vn -0.9297 0.3354 0.1525
vn -0.9189 0.3665 0.1460
vn 0.1370 0.9904 -0.0197
vn 0.2192 0.9727 0.0766
vn -0.1370 0.9904 -0.0197
vn -0.2192 0.9727 0.0766
vn -0.0369 0.9705 -0.2384
vn 0.0369 0.9705 -0.2384
vn 0.8941 0.4076 0.1857
vn 0.8957 0.3624 0.2578
vn -0.3706 0.6349 -0.6780
vn 0.9205 0.3315 0.2068
vn -0.9205 0.3315 0.2068
vn -0.8957 0.3624 0.2578
vn 0.9188 0.2570 0.2995
vn 0.9126 0.2213 0.3438
vn -0.9188 0.2570 0.2995
vn -0.9476 0.1880 0.2582
vn -0.9126 0.2213 0.3438
vn 0.9422 0.0704 0.3276
vn -0.9422 0.0704 0.3276
vn 0.1657 0.3051 -0.9378
vn 0.2773 0.5495 -0.7882
vn 0.1596 0.2394 -0.9577
vn -0.1657 0.3051 -0.9378
vn -0.2773 0.5495 -0.7882
vn 0.4455 0.8204 -0.3584
vn 0.3484 0.6773 -0.6480
vn 0.3655 0.8865 -0.2838
vn -0.4455 0.8204 -0.3584
vn -0.3484 0.6773 -0.6480
vn -0.5223 0.5477 -0.6536
vn 0.5223 0.5477 -0.6536
vn 0.2997 0.3211 -0.8984
vn -0.2997 0.3211 -0.8984
vn -0.5071 0.2033 -0.8376
vn 0.2921 0.1336 -0.9470
vn 0.3117 0.1742 -0.9341
vn -0.2921 0.1336 -0.9470
vn -0.3117 0.1742 -0.9341
vn 0.3069 0.1586 -0.9384
vn 0.3287 0.2291 -0.9163
vn -0.3069 0.1586 -0.9384
vn -0.3287 0.2291 -0.9163
vn -0.8642 -0.1696 -0.4737
vn -0.7106 -0.1793 -0.6804
vn -0.7731 -0.1454 -0.6174
vn 0.7988 -0.2698 -0.5376
vn 0.7211 -0.0651 -0.6898
vn 0.9227 0.0957 -0.3734
vn -0.7211 -0.0651 -0.6898
vn -0.7988 -0.2698 -0.5376
vn -0.9227 0.0957 -0.3734
vn 0.4049 0.8973 -0.1758
vn 0.2950 0.9544 -0.0454
vn -0.4049 0.8973 -0.1758
vn -0.3655 0.8865 -0.2838
vn 0.1186 -0.2378 0.9641
vn -0.0000 -0.0226 0.9997
vn -0.0000 -0.2279 0.9737
vn -0.1186 -0.2378 0.9641
vn -0.1193 -0.0295 0.9924
vn 0.1264 0.1868 0.9742
vn -0.0000 0.1803 0.9836
vn -0.1264 0.1868 0.9742
vn 0.3500 0.7234 0.5952
vn 0.4821 0.7390 0.4705
vn 0.3878 0.6828 0.6192
vn -0.4821 0.7390 0.4705
vn -0.3500 0.7234 0.5952
vn -0.3878 0.6828 0.6192
vn 0.4394 0.1346 0.8882
vn 0.4026 0.0895 0.9110
vn -0.4394 0.1346 0.8882
vn -0.4026 0.0895 0.9110
vn 0.1140 -0.6473 0.7537
vn 0.2110 -0.6995 0.6828
vn 0.2561 -0.7202 0.6447
vn -0.2110 -0.6995 0.6828
vn -0.1140 -0.6473 0.7537
vn -0.2561 -0.7202 0.6447
vn 0.7120 -0.2489 0.6566
vn 0.6536 -0.0050 0.7568
vn 0.6784 0.0695 0.7314
vn -0.6536 -0.0050 0.7568
vn -0.7120 -0.2489 0.6566
vn -0.6784 0.0695 0.7314
vn 0.7041 0.2039 0.6802
vn 0.6878 0.1965 0.6988
vn -0.7041 0.2039 0.6802
vn -0.6878 0.1965 0.6988
vn 0.6197 0.7825 -0.0605
vn 0.6587 0.7214 0.2137
vn 0.6541 0.7445 -0.1337
vn -0.6197 0.7825 -0.0605
vn -0.6587 0.7214 0.2137
vn -0.4928 0.7604 0.4230
vn 0.4928 0.7604 0.4230
vn 0.6434 0.1780 0.7446
vn -0.6434 0.1780 0.7446
vn 0.6957 -0.0462 0.7168
vn -0.6957 -0.0462 0.7168
vn 0.7495 -0.3888 0.5358
vn 0.7287 -0.5598 0.3945
vn -0.7287 -0.5598 0.3945
vn -0.7495 -0.3888 0.5358
vn 0.3504 0.1961 0.9158
vn -0.3504 0.1961 0.9158
vn 0.2305 -0.7908 0.5670
vn 0.2310 -0.7830 0.5775
vn 0.2882 -0.7438 0.6031
vn -0.2305 -0.7908 0.5670
vn -0.2310 -0.7830 0.5775
vn -0.1548 -0.8473 0.5080
vn -0.1722 0.9795 0.1046
vn -0.1732 0.9796 0.1020
vn -0.1702 0.9793 0.1097
vn 0.1722 0.9795 0.1046
vn 0.1732 0.9796 0.1020
vn 0.1782 0.9800 0.0891
vn 0.2925 -0.7697 0.5674
vn -0.2925 -0.7697 0.5674
vn -0.2882 -0.7438 0.6031
vn -0.0000 -0.9823 0.1871
vn -0.1616 -0.9694 0.1847
vn 0.1616 -0.9694 0.1847
vn 0.8185 0.5618 0.1201
vn 0.8681 0.4883 0.0893
vn -0.9340 -0.2773 0.2255
vn -0.9343 -0.3224 0.1520
vn -0.9542 -0.2652 0.1386
vn 0.9542 -0.2652 0.1386
vn 0.9675 -0.2076 0.1446
vn 0.9343 -0.3224 0.1520
vn -0.9675 -0.2076 0.1446
vn 0.9970 0.0695 -0.0333
vn 0.9869 0.0370 0.1568
vn -0.9869 0.0370 0.1568
vn -0.9970 0.0695 -0.0333
vn 0.9945 0.0974 0.0383
vn 0.9813 0.1922 -0.0039
vn 0.9817 0.1882 -0.0304
vn -0.9945 0.0974 0.0383
vn -0.9813 0.1922 -0.0039
vn 0.5071 0.2033 -0.8376
vn 0.5790 -0.1427 -0.8027
vn 0.7731 -0.1454 -0.6174
vn -0.5790 -0.1427 -0.8027
vn -0.5633 0.1213 -0.8173
vn 0.4097 0.0692 -0.9096
vn -0.4097 0.0692 -0.9096
vn 0.5572 -0.2675 -0.7861
vn -0.5572 -0.2675 -0.7861
vn 0.5762 -0.1402 -0.8052
vn 0.7106 -0.1793 -0.6804
vn -0.5762 -0.1402 -0.8052
vn 0.2848 -0.8263 -0.4859
vn 0.2637 -0.8533 -0.4499
vn 0.2903 -0.8189 -0.4951
vn -0.2903 -0.8189 -0.4951
vn -0.2637 -0.8533 -0.4499
vn -0.2848 -0.8263 -0.4859
vn 0.4858 0.8293 -0.2762
vn -0.4858 0.8293 -0.2762
vn -0.5231 0.7712 -0.3629
vn 0.5633 0.1213 -0.8173
vn 0.2771 0.4572 -0.8451
vn -0.2771 0.4572 -0.8451
vn -0.2144 0.5082 -0.8341
vn -0.7365 0.2808 -0.6154
vn 0.5231 0.7712 -0.3629
vn 0.2091 -0.8916 0.4016
vn 0.3974 -0.8661 0.3033
vn 0.4343 -0.8658 0.2485
vn -0.2091 -0.8916 0.4016
vn -0.3974 -0.8661 0.3033
vn -0.1933 -0.9131 0.3591
vn 0.3775 -0.9160 0.1358
vn 0.3707 -0.9149 0.1595
vn -0.3775 -0.9160 0.1358
vn -0.4343 -0.8658 0.2485
vn -0.3707 -0.9149 0.1595
vn 0.2183 -0.9759 -0.0025
vn -0.2183 -0.9759 -0.0025
vn -0.2037 -0.9778 -0.0495
vn 0.2037 -0.9778 -0.0495
vn 0.2987 -0.9541 -0.0200
vn -0.2987 -0.9541 -0.0200
vn -0.3386 -0.9409 -0.0024
vn 0.3386 -0.9409 -0.0024
vn 0.5992 -0.7751 -0.2006
vn -0.5992 -0.7751 -0.2006
vn -0.6182 -0.7583 -0.2071
vn 0.6025 -0.7092 -0.3660
vn 0.5957 -0.7049 -0.3850
vn -0.6025 -0.7092 -0.3660
vn -0.5957 -0.7049 -0.3850
vn 0.4170 -0.5381 0.7325
vn 0.4777 -0.6596 0.5804
vn 0.4843 -0.6738 0.5580
vn -0.4777 -0.6596 0.5804
vn -0.4170 -0.5381 0.7325
vn -0.4843 -0.6738 0.5580
vn -0.2658 -0.4904 0.8300
vn -0.2673 -0.4869 0.8315
vn -0.2675 -0.4864 0.8318
vn 0.2673 -0.4869 0.8315
vn 0.2658 -0.4904 0.8300
vn 0.2675 -0.4864 0.8318
vn -0.8505 -0.4759 0.2241
vn -0.8020 -0.5495 0.2342
vn -0.8576 -0.4637 0.2223
vn 0.8505 -0.4759 0.2241
vn 0.8020 -0.5495 0.2342
vn 0.7885 -0.5677 0.2366
vn -0.5253 -0.7723 -0.3572
vn -0.5246 -0.7735 -0.3557
vn -0.5257 -0.7717 -0.3579
vn 0.5253 -0.7723 -0.3572
vn 0.5246 -0.7735 -0.3557
vn 0.5242 -0.7742 -0.3548
vn 0.5605 -0.4991 -0.6609
vn 0.4484 -0.7048 -0.5498
vn 0.6100 -0.5996 -0.5181
vn -0.5605 -0.4991 -0.6609
vn -0.4484 -0.7048 -0.5498
vn -0.4390 -0.7290 -0.5252
vn 0.6842 -0.4722 -0.5558
vn -0.6842 -0.4722 -0.5558
vn -0.6100 -0.5996 -0.5181
vn 0.7062 0.0599 -0.7054
vn 0.8572 0.1483 -0.4931
vn -0.7062 0.0599 -0.7054
vn -0.8572 0.1483 -0.4931
vn -0.6302 -0.1282 -0.7658
vn -0.1990 -0.9384 0.2825
vn -0.1921 -0.9388 0.2859
vn -0.1788 -0.9395 0.2923
vn 0.1990 -0.9384 0.2825
vn 0.1921 -0.9388 0.2859
vn 0.2175 -0.9370 0.2733
vn 0.1496 -0.9887 0.0002
vn 0.1933 -0.9131 0.3591
vn -0.1496 -0.9887 0.0002
vn 0.0773 -0.3539 0.9321
vn 0.0141 -0.1719 0.9850
vn 0.2734 -0.3221 0.9064
vn -0.0141 -0.1719 0.9850
vn -0.0773 -0.3539 0.9321
vn -0.2734 -0.3221 0.9064
vn 0.4480 -0.7737 -0.4480
vn -0.7177 -0.6755 0.1689
vn 0.5402 -0.7165 -0.4413
vn 0.5534 -0.6225 -0.5534
vn 0.5675 -0.6235 -0.5377
vn -0.9335 0.0987 -0.3446
vn -0.9008 -0.1501 -0.4075
vn -0.9382 0.0981 -0.3320
vn 0.5990 -0.7277 -0.3340
vn 0.3727 -0.9005 -0.2242
vn -0.5402 -0.7165 -0.4413
vn -0.5990 -0.7277 -0.3340
vn -0.5675 -0.6235 -0.5377
vn 0.6216 -0.5994 -0.5043
vn -0.3727 -0.9004 -0.2242
vn 0.9335 0.0987 -0.3446
vn 0.9972 0.0725 -0.0181
vn 0.9382 0.0981 -0.3320
vn -0.9972 0.0725 -0.0181
vn 0.7640 -0.1334 -0.6313
vn 0.6508 -0.3044 -0.6956
vn -0.7640 -0.1334 -0.6313
vn -0.6508 -0.3044 -0.6956
vn 0.7454 -0.1164 -0.6564
vn 0.7738 -0.0896 -0.6271
vn -0.7454 -0.1164 -0.6564
vn -0.7526 -0.1254 -0.6464
vn 0.7022 -0.1170 -0.7022
vn 0.7526 -0.1254 -0.6464
vn -0.7022 -0.1170 -0.7022
vn 0.1950 0.0643 0.9787
vn 0.1723 0.0370 0.9843
vn 0.1240 -0.0207 0.9921
vn -0.1950 0.0643 0.9787
vn -0.1723 0.0370 0.9843
vn -0.2408 0.1204 0.9631
vn 0.9327 -0.1350 0.3344
vn 0.9373 -0.1225 0.3262
vn 0.9435 -0.1048 0.3145
vn -0.9327 -0.1350 0.3344
vn -0.9373 -0.1225 0.3262
vn -0.9251 -0.1542 0.3469
vn 0.6645 -0.0539 -0.7453
vn 0.6644 -0.0541 -0.7454
vn 0.6213 -0.1036 -0.7767
vn -0.6644 -0.0541 -0.7454
vn -0.6645 -0.0539 -0.7453
vn -0.6213 -0.1036 -0.7767
vn -0.0136 -0.1182 0.9929
vn -0.0000 -0.0000 1.0000
vn 0.0136 -0.1182 0.9929
vn 0.3745 -0.3569 -0.8558
vn -0.3745 -0.3569 -0.8558
vn 0.2747 -0.3781 -0.8841
vn 0.2752 -0.3853 -0.8808
vn -0.2747 -0.3781 -0.8841
vn -0.2752 -0.3853 -0.8808
vn -0.8109 0.2712 -0.5185
vn -0.8526 0.1660 -0.4955
vn -0.7929 0.3089 -0.5252
vn 0.8526 0.1660 -0.4955
vn 0.8109 0.2712 -0.5185
vn 0.7929 0.3089 -0.5252
vn -0.8464 0.4780 0.2347
vn -0.8188 0.5210 0.2410
vn -0.8096 0.5343 0.2429
vn 0.8464 0.4780 0.2347
vn 0.8188 0.5210 0.2410
vn 0.8538 0.4657 0.2328
vn -0.5505 0.4224 0.7201
vn -0.4622 0.0976 0.8814
vn -0.2426 0.0260 0.9698
vn 0.5505 0.4224 0.7201
vn 0.4622 0.0976 0.8814
vn 0.5433 0.4657 0.6985
vn -0.1274 -0.2651 0.9558
vn 0.2426 0.0260 0.9698
vn 0.1374 -0.9902 0.0253
vn 0.1951 -0.9800 0.0390
vn 0.0738 -0.9972 0.0108
vn -0.1374 -0.9902 0.0253
vn -0.1951 -0.9800 0.0390
vn -0.4619 -0.8854 0.0527
vn 0.4619 -0.8854 0.0527
vn 0.3347 -0.9423 -0.0046
vn -0.3347 -0.9423 -0.0046
vn -0.4448 -0.8907 -0.0937
vn 0.3144 -0.9436 -0.1038
vn 0.3343 -0.9364 0.1068
vn -0.3144 -0.9436 -0.1038
vn -0.3343 -0.9364 0.1068
vn 0.2896 -0.9035 0.3158
vn -0.2896 -0.9035 0.3158
vn -0.3831 -0.9211 -0.0685
vn 0.1702 -0.8445 0.5078
vn -0.1702 -0.8445 0.5078
vn 0.4660 -0.8835 0.0484
vn 0.3147 -0.9420 -0.1169
vn -0.4660 -0.8835 0.0484
vn 0.1796 -0.9829 -0.0404
vn -0.1796 -0.9829 -0.0404
vn -0.0738 -0.9972 0.0108
vn -0.3715 -0.6115 0.6986
vn -0.3990 -0.6161 0.6791
vn -0.4870 -0.6262 0.6088
vn 0.3715 -0.6115 0.6986
vn 0.3990 -0.6161 0.6791
vn 0.2981 -0.5963 0.7454
vn 0.5223 -0.8442 -0.1202
vn 0.6693 -0.7208 0.1802
vn -0.5223 -0.8442 -0.1202
vn -0.6693 -0.7208 0.1802
vn 0.4918 -0.8486 -0.1950
vn 0.3831 -0.9211 -0.0685
vn 0.5507 -0.8305 0.0834
vn -0.4918 -0.8486 -0.1950
vn 0.4745 -0.8104 0.3437
vn -0.4745 -0.8104 0.3437
vn -0.5507 -0.8305 0.0834
vn 0.2451 0.0870 -0.9656
vn -0.0786 0.1924 -0.9782
vn 0.3670 0.0586 -0.9284
vn 0.0786 0.1924 -0.9782
vn -0.2451 0.0870 -0.9656
vn -0.3670 0.0586 -0.9284
vn 0.4835 -0.0865 -0.8711
vn 0.4688 -0.1442 -0.8715
vn -0.4835 -0.0865 -0.8711
vn -0.4688 -0.1442 -0.8715
vn 0.9274 -0.2805 -0.2476
vn 0.9300 -0.2672 -0.2524
vn 0.9309 -0.2624 -0.2541
vn -0.9274 -0.2805 -0.2476
vn -0.9300 -0.2672 -0.2524
vn -0.9264 -0.2851 -0.2460
vn 0.8334 0.0213 0.5523
vn 0.8423 0.0466 0.5371
vn 0.8465 0.0595 0.5291
vn -0.8334 0.0213 0.5523
vn -0.8423 0.0466 0.5371
vn -0.8267 0.0035 0.5627
vn -0.2282 0.2791 0.9328
vn -0.3102 0.2303 0.9223
vn -0.3779 0.1628 0.9114
vn 0.2282 0.2791 0.9328
vn 0.3102 0.2303 0.9223
vn 0.2146 0.3157 0.9243
vn -0.6507 0.0463 0.7579
vn -0.6280 -0.0093 0.7782
vn 0.3779 0.1628 0.9114
vn 0.6507 0.0463 0.7579
vn -0.3907 0.9205 -0.0029
vn -0.5320 0.8467 -0.0064
vn -0.3579 0.9334 -0.0259
vn 0.3907 0.9205 -0.0029
vn 0.5320 0.8467 -0.0064
vn 0.5470 0.8370 -0.0144
vn -0.1764 0.9842 -0.0127
vn 0.1764 0.9842 -0.0127
vn 0.3579 0.9334 -0.0259
vn 0.4046 0.9141 0.0266
vn -0.4046 0.9141 0.0266
vn -0.7659 -0.0290 0.6423
vn -0.8073 -0.0041 0.5901
vn 0.7659 -0.0290 0.6423
vn 0.6280 -0.0093 0.7782
vn 0.4841 0.8474 -0.2179
vn -0.4841 0.8474 -0.2179
vn -0.6541 0.7445 -0.1337
vn -0.2101 0.2501 -0.9451
vn -0.0089 0.0774 -0.9970
vn 0.2101 0.2501 -0.9451
vn 0.0089 0.0774 -0.9970
vn -0.0649 -0.8181 -0.5714
vn 0.0649 -0.8181 -0.5714
vn -0.7606 -0.5531 -0.3400
vn 0.4767 -0.8581 -0.1907
vn -0.4983 -0.8478 0.1812
vn 0.4983 -0.8478 0.1812
vn -0.7683 -0.5488 0.3293
vn -0.2487 -0.5076 0.8249
vn 0.0821 -0.7940 0.6023
vn 0.4059 -0.5014 0.7641
vn 0.8299 -0.4742 0.2940
vn 0.7816 0.5437 0.3058
vn -0.8400 0.4200 0.3436
vn 0.2037 0.5431 0.8146
vn -0.2074 0.5185 0.8296
vn -0.4381 0.4123 0.7988
vn 0.4056 0.5070 0.7605
vn -0.7861 0.5241 0.3276
vn 0.8642 0.3928 0.3143
vn -0.8519 0.3976 -0.3408
vn 0.8519 0.3976 -0.3408
vn -0.4056 0.5070 -0.7605
vn 0.4056 0.5070 -0.7605
vn 0.2074 0.5185 -0.8296
vn -0.2074 0.5185 -0.8296
vn 0.8297 0.4149 -0.3734
vn -0.8297 0.4149 -0.3734
vn -0.2303 -0.4447 -0.8656
vn -0.2982 -0.5854 -0.7539
vn -0.6945 -0.5937 -0.4064
vn 0.8227 -0.4395 0.3606
vn -0.3127 -0.8860 0.3425
vn 0.6155 -0.6155 0.4924
vn -0.6155 -0.6155 0.4924
vn -0.0371 -0.7428 0.6685
vn 0.0486 -0.7532 0.6560
vn 0.7104 -0.6494 0.2715
vn -0.5774 -0.5774 0.5774
vn -0.5907 -0.6356 -0.4971
vn 0.0279 -0.5019 -0.8645
vn -0.0547 -0.9840 -0.1695
vn 0.4284 -0.8911 0.1494
vn -0.4284 -0.8911 0.1494
vn -0.0317 -0.9813 -0.1899
vn 0.0317 -0.9813 -0.1899
vn 0.1854 -0.8485 -0.4956
vn 0.2242 -0.8769 -0.4252
vn -0.6819 -0.6709 -0.2915
vn -0.0000 -0.7593 -0.6508
vn 0.7826 0.1304 -0.6087
vn -0.7826 0.1304 -0.6087
vn 0.9635 0.1606 0.2141
vn -0.9256 0.2848 0.2492
vn 0.1018 0.3870 0.9165
vn -0.0693 0.4294 0.9004
vn -0.6905 -0.4708 0.5492
vn 0.4319 -0.2592 -0.8639
vn -0.4071 -0.1791 -0.8956
vn -0.2873 -0.7663 -0.5747
vn -0.6667 -0.3333 0.6667
vn 0.6667 -0.3333 0.6667
vn 0.1348 -0.5727 0.8086
vn -0.1348 -0.5727 0.8086
vn 0.7639 -0.5729 0.2971
vn -0.7532 -0.5918 0.2870
vn 0.4116 -0.3087 -0.8575
vn -0.4116 -0.3087 -0.8575
vn 0.0375 -0.9737 0.2247
vn -0.0502 -0.9709 0.2343
vn -0.0631 -0.5681 -0.8206
vn 0.0631 -0.5681 -0.8206
vn 0.7325 -0.6198 0.2817
vn -0.7325 -0.6198 0.2817
vn 0.3319 -0.9404 0.0738
vn -0.5460 -0.7184 -0.4310
vn 0.9586 -0.2767 0.0664
vn -0.9586 -0.2767 0.0664
vn -0.7238 -0.0762 0.6857
vn 0.7238 -0.0762 0.6857
vn -0.0000 -0.9578 -0.2873
vn 0.4895 -0.7666 -0.4156
vn 0.0694 -0.9910 0.1149
vn -0.6684 -0.5849 -0.4595
vn 0.3358 -0.8754 0.3478
vn -0.3358 -0.8754 0.3478
vn -0.0631 -0.9468 -0.3156
vn 0.3766 -0.4035 -0.8339
vn -0.0823 -0.6175 -0.7822
vn -0.3356 -0.9110 -0.2397
vn 0.3356 -0.9110 -0.2397
vn 0.2692 -0.9614 -0.0577
vn -0.0247 -0.9130 0.4072
vn 0.0247 -0.9130 0.4072
vn -0.4482 -0.6832 0.5765
vn -0.8507 0.3783 0.3650
vn 0.8507 0.3783 0.3650
vn -0.2197 0.4557 0.8626
vn 0.2664 0.4127 0.8710
vn -0.5932 0.3063 0.7445
vn 0.2760 0.2915 0.9159
vn -0.2760 0.2915 0.9159
vn -0.8873 0.4412 0.1343
vn 0.2648 0.6885 -0.6752
vn -0.0000 0.0665 -0.9978
vn 0.8150 0.1405 -0.5621
vn -0.8150 0.1405 -0.5621
vn 0.3706 0.6349 -0.6780
vn -0.8941 0.4076 0.1857
vn 0.9476 0.1880 0.2582
vn -0.1596 0.2394 -0.9577
vn 0.8642 -0.1696 -0.4737
vn -0.2950 0.9544 -0.0454
vn 0.1193 -0.0295 0.9924
vn 0.3154 0.7581 0.5708
vn -0.3154 0.7581 0.5708
vn 0.0452 -0.6043 0.7955
vn -0.0452 -0.6043 0.7955
vn 0.6144 -0.1738 0.7696
vn -0.6144 -0.1738 0.7696
vn 0.6885 -0.6158 0.3830
vn -0.6885 -0.6158 0.3830
vn 0.1548 -0.8473 0.5080
vn -0.1782 0.9800 0.0891
vn 0.1702 0.9793 0.1097
vn -0.2638 0.1871 0.9462
vn 0.2638 0.1871 0.9462
vn 0.9340 -0.2773 0.2255
vn -0.8681 0.4883 0.0893
vn -0.9817 0.1882 -0.0304
vn 0.3070 -0.7946 -0.5237
vn -0.3070 -0.7946 -0.5237
vn 0.2144 0.5082 -0.8341
vn 0.7365 0.2808 -0.6154
vn 0.6182 -0.7583 -0.2071
vn 0.4075 -0.5201 0.7506
vn -0.4075 -0.5201 0.7506
vn -0.2655 -0.4911 0.8296
vn 0.2655 -0.4911 0.8296
vn -0.7885 -0.5677 0.2366
vn 0.8576 -0.4637 0.2223
vn -0.5242 -0.7742 -0.3548
vn 0.5257 -0.7717 -0.3579
vn 0.4390 -0.7290 -0.5252
vn -0.6216 -0.5994 -0.5043
vn 0.6302 -0.1282 -0.7658
vn -0.2175 -0.9370 0.2733
vn 0.1788 -0.9395 0.2923
vn 0.1274 -0.2651 0.9558
vn 0.7177 -0.6755 0.1689
vn -0.4480 -0.7737 -0.4480
vn 0.5313 -0.6134 0.5844
vn -0.5313 -0.6134 0.5844
vn 0.9008 -0.1501 -0.4075
vn -0.5534 -0.6225 -0.5534
vn -0.7738 -0.0896 -0.6271
vn 0.2408 0.1204 0.9631
vn -0.1240 -0.0207 0.9921
vn 0.9251 -0.1542 0.3469
vn -0.9435 -0.1048 0.3145
vn 0.7071 -0.0000 -0.7071
vn -0.7071 -0.0000 -0.7071
vn -0.8651 0.1266 -0.4853
vn 0.8651 0.1266 -0.4853
vn -0.8538 0.4657 0.2328
vn 0.8096 0.5343 0.2429
vn -0.5433 0.4657 0.6985
vn 0.4448 -0.8907 -0.0937
vn 0.5679 -0.8005 0.1916
vn -0.5679 -0.8005 0.1916
vn -0.3147 -0.9420 -0.1169
vn -0.2981 -0.5963 0.7454
vn 0.4870 -0.6262 0.6088
vn 0.9264 -0.2851 -0.2460
vn -0.9309 -0.2624 -0.2541
vn 0.8267 0.0035 0.5627
vn -0.8465 0.0595 0.5291
vn -0.2146 0.3157 0.9243
vn -0.5470 0.8370 -0.0144
vn -0.2556 0.9639 -0.0749
vn 0.2556 0.9639 -0.0749
vn 0.8073 -0.0041 0.5901
vn 0.6844 0.7088 -0.1711
vn -0.6844 0.7088 -0.1711
vn -0.3604 0.4290 -0.8283
vn 0.3604 0.4290 -0.8283
s 1
f 47//1 3//2 45//3
f 4//4 48//5 46//6
f 45//3 5//7 43//8
f 6//9 46//6 44//10
f 3//2 7//11 5//12
f 8//13 4//4 6//14
f 1//15 9//16 3//2
f 10//17 2//18 4//4
f 11//19 15//20 9//16
f 16//21 12//22 10//17
f 9//16 17//23 7//24
f 18//25 10//17 8//26
f 21//27 17//28 15//29
f 22//30 18//31 20//32
f 23//33 15//29 13//34
f 24//35 16//36 22//30
f 23//33 27//37 21//27
f 28//38 24//35 22//30
f 27//37 19//39 21//27
f 28//38 20//40 30//41
f 33//42 29//43 27//44
f 34//45 30//46 32//47
f 35//48 27//44 25//49
f 36//50 28//51 34//45
f 37//52 33//42 35//48
f 38//53 34//45 40//54
f 39//55 31//56 33//42
f 40//54 32//57 42//58
f 45//3 41//59 39//55
f 46//6 42//60 44//61
f 47//1 39//55 37//52
f 48//5 40//54 46//6
f 37//62 49//63 47//64
f 38//65 50//66 52//67
f 35//68 51//69 37//70
f 36//71 52//72 54//73
f 25//74 53//75 35//76
f 26//77 54//78 56//79
f 23//80 55//81 25//82
f 24//83 56//84 58//85
f 23//86 59//87 57//88
f 60//89 24//90 58//91
f 13//92 63//93 59//94
f 64//95 14//96 60//97
f 11//98 65//99 63//100
f 66//101 12//102 64//103
f 1//104 49//105 65//106
f 50//107 2//108 66//109
f 61//110 65//111 49//112
f 50//113 66//114 62//115
f 63//116 65//111 61//110
f 62//115 66//114 64//117
f 61//110 59//118 63//116
f 64//117 60//119 62//115
f 61//110 57//120 59//118
f 60//119 58//121 62//115
f 61//110 55//122 57//120
f 58//121 56//123 62//115
f 61//110 53//124 55//122
f 56//123 54//125 62//115
f 61//110 51//126 53//124
f 54//125 52//127 62//115
f 61//110 49//112 51//126
f 52//127 50//113 62//115
f 174//128 91//129 89//130
f 175//131 91//129 176//132
f 172//133 89//130 87//134
f 173//135 90//136 175//131
f 85//137 172//133 87//138
f 173//135 86//139 88//140
f 83//141 170//142 85//137
f 171//143 84//144 86//139
f 81//145 168//146 83//141
f 169//147 82//148 84//144
f 79//149 146//150 164//151
f 147//152 80//153 165//154
f 94//155 146//150 92//156
f 95//157 147//152 149//158
f 94//155 150//159 148//160
f 151//161 95//157 149//158
f 98//162 150//159 96//163
f 99//164 151//161 153//165
f 100//166 152//166 98//166
f 101//167 153//168 155//169
f 102//170 154//171 100//172
f 103//173 155//169 157//174
f 102//170 158//175 156//176
f 159//177 103//173 157//174
f 106//178 158//179 104//180
f 107//181 159//182 161//183
f 108//184 160//185 106//186
f 109//187 161//188 163//189
f 67//190 162//191 108//184
f 67//192 163//189 68//193
f 128//194 162//195 110//196
f 129//197 163//198 161//199
f 128//194 158//200 160//201
f 159//202 129//197 161//199
f 156//203 179//204 126//205
f 157//206 180//207 159//202
f 154//208 126//205 124//209
f 155//210 127//211 157//206
f 152//212 124//213 122//214
f 153//215 125//216 155//210
f 150//159 122//214 120//217
f 151//161 123//218 153//165
f 148//160 120//217 118//219
f 149//158 121//220 151//161
f 146//150 118//219 116//221
f 147//152 119//222 149//158
f 114//223 146//150 116//221
f 147//152 115//224 117//225
f 114//226 177//227 164//228
f 177//229 115//230 165//231
f 162//195 112//232 110//196
f 163//233 113//234 68//235
f 112//236 178//237 183//238
f 178//237 113//234 184//239
f 181//240 178//237 177//241
f 182//242 178//237 184//239
f 135//243 176//132 174//128
f 176//132 136//244 175//131
f 133//245 174//128 172//133
f 175//131 134//246 173//135
f 133//245 170//142 131//247
f 134//246 171//143 173//135
f 166//248 185//249 168//250
f 186//251 167//252 169//253
f 131//247 168//250 185//249
f 169//253 132//254 186//251
f 190//255 187//256 144//257
f 190//255 188//258 189//259
f 187//256 69//260 185//249
f 188//258 69//260 189//259
f 131//247 69//260 130//261
f 132//254 69//260 186//251
f 142//262 191//263 144//264
f 192//265 143//266 145//267
f 195//268 142//269 140//270
f 196//271 143//272 194//273
f 197//274 140//275 139//276
f 198//277 141//278 196//279
f 71//280 139//280 138//280
f 71//281 139//282 198//283
f 144//284 70//285 190//286
f 145//287 70//288 192//289
f 191//290 208//291 70//292
f 192//293 208//291 207//294
f 71//295 200//296 197//297
f 201//298 71//281 198//283
f 197//299 202//300 195//301
f 203//302 198//303 196//304
f 202//305 193//306 195//307
f 203//308 194//309 205//310
f 193//311 206//312 191//290
f 207//294 194//313 192//293
f 204//314 200//315 199//316
f 205//317 201//318 203//319
f 199//320 206//312 204//321
f 207//294 199//320 205//322
f 139//323 164//228 177//227
f 165//231 139//324 177//229
f 140//325 211//325 164//325
f 212//326 141//326 165//326
f 144//327 211//327 142//327
f 145//328 212//329 214//330
f 187//256 213//331 144//257
f 188//258 214//330 167//252
f 209//332 166//333 81//145
f 210//334 167//335 214//336
f 215//337 213//338 209//332
f 216//339 214//336 212//340
f 79//341 211//342 215//337
f 212//340 80//343 216//339
f 130//261 222//344 131//247
f 130//345 223//346 72//347
f 133//245 222//344 220//348
f 223//349 134//246 221//350
f 135//351 220//348 218//352
f 221//350 136//353 219//354
f 137//355 218//352 217//259
f 219//354 137//355 217//259
f 218//356 231//357 217//357
f 219//358 231//357 230//358
f 218//359 227//360 229//361
f 228//362 219//363 230//364
f 220//280 225//280 227//280
f 226//365 221//365 228//365
f 72//347 225//366 222//367
f 72//347 226//368 224//368
f 224//369 229//370 225//371
f 230//372 224//369 226//373
f 225//371 229//370 227//374
f 228//375 230//372 226//373
f 183//376 234//377 232//378
f 235//379 184//380 233//381
f 112//382 232//378 254//383
f 233//381 113//384 255//385
f 112//382 256//386 110//387
f 113//384 257//388 255//385
f 114//389 234//377 181//390
f 115//391 235//379 253//392
f 114//223 250//393 252//394
f 251//395 115//224 253//396
f 116//221 248//397 250//393
f 249//398 117//225 251//395
f 118//219 246//399 248//397
f 247//400 119//222 249//398
f 120//217 244//401 246//399
f 245//402 121//220 247//400
f 124//403 244//401 122//214
f 125//404 245//402 243//405
f 126//406 242//407 124//403
f 127//408 243//405 241//409
f 126//406 236//410 240//411
f 237//412 127//408 241//409
f 179//413 238//414 236//415
f 239//416 180//417 237//418
f 128//419 256//386 238//414
f 257//388 129//420 239//416
f 238//421 258//422 276//423
f 259//424 239//425 277//426
f 236//427 276//423 278//428
f 277//426 237//429 279//430
f 236//431 274//432 240//433
f 237//429 275//434 279//430
f 240//433 272//435 242//436
f 241//437 273//438 275//439
f 244//440 272//441 270//442
f 273//443 245//444 271//445
f 244//440 268//446 246//447
f 245//444 269//448 271//445
f 248//449 268//450 266//451
f 269//452 249//453 267//454
f 248//449 264//455 250//456
f 249//453 265//457 267//454
f 250//456 262//458 252//459
f 251//460 263//461 265//457
f 234//462 262//458 280//463
f 263//461 235//464 281//465
f 256//466 260//467 258//422
f 261//468 257//469 259//424
f 254//470 282//471 260//467
f 283//472 255//473 261//468
f 232//474 280//463 282//471
f 281//465 233//475 283//472
f 67//476 284//477 73//478
f 285//479 67//480 73//481
f 108//482 286//483 284//477
f 287//484 109//485 285//479
f 104//486 286//487 106//488
f 105//489 287//490 289//491
f 102//492 288//493 104//494
f 103//495 289//496 291//497
f 100//498 290//499 102//492
f 101//500 291//497 293//501
f 100//498 294//502 292//503
f 295//504 101//500 293//501
f 96//505 294//506 98//507
f 97//508 295//509 297//510
f 96//511 298//512 296//513
f 299//514 97//515 297//516
f 94//517 300//518 298//512
f 301//519 95//520 299//514
f 309//521 338//522 308//523
f 309//524 339//525 329//526
f 308//523 336//527 307//528
f 308//523 337//529 339//525
f 307//528 340//530 306//531
f 307//528 341//532 337//529
f 89//533 306//534 340//535
f 306//534 90//536 341//537
f 87//538 340//535 334//539
f 341//537 88//540 335//541
f 85//542 334//543 330//544
f 335//545 86//546 331//547
f 83//548 330//544 332//549
f 331//547 84//550 333//551
f 330//552 338//522 332//553
f 339//525 331//554 333//555
f 334//556 336//527 330//552
f 335//557 337//529 341//532
f 332//549 328//558 326//559
f 333//560 329//526 339//525
f 81//561 332//549 326//559
f 333//551 82//562 327//563
f 342//564 215//337 209//565
f 343//566 216//339 345//567
f 326//559 209//565 81//561
f 327//563 210//568 343//566
f 215//337 346//569 79//341
f 216//339 347//570 345//567
f 346//571 92//572 79//573
f 347//574 93//575 301//519
f 324//576 304//577 77//578
f 325//579 304//580 353//581
f 352//582 78//583 304//577
f 353//581 78//584 351//585
f 78//583 348//586 305//587
f 349//588 78//584 305//589
f 305//587 328//590 309//591
f 329//592 305//589 309//593
f 328//558 342//564 326//559
f 329//594 343//595 349//596
f 296//597 318//598 310//599
f 319//600 297//601 311//602
f 316//603 77//578 76//604
f 317//605 77//606 325//579
f 358//607 303//608 302//609
f 359//610 303//608 357//611
f 303//608 354//612 75//613
f 355//614 303//608 75//613
f 75//615 316//616 76//617
f 317//618 75//619 76//620
f 292//503 362//621 364//622
f 363//623 293//501 365//624
f 364//625 368//626 366//627
f 369//628 365//629 367//630
f 366//631 370//632 372//633
f 371//634 367//635 373//636
f 372//633 376//637 374//638
f 377//639 373//636 375//640
f 378//641 376//642 314//643
f 379//644 377//645 375//646
f 316//616 374//647 378//641
f 375//646 317//618 379//644
f 354//648 372//633 374//638
f 373//636 355//649 375//640
f 356//650 366//631 372//633
f 367//635 357//651 373//636
f 358//652 364//653 366//631
f 365//654 359//655 367//635
f 292//503 360//656 290//499
f 293//501 361//657 365//624
f 360//658 302//659 74//660
f 361//661 302//662 359//663
f 286//664 290//665 284//666
f 287//667 291//668 289//669
f 284//670 360//658 74//660
f 361//661 285//671 74//672
f 73//673 284//674 74//673
f 74//673 285//675 73//673
f 296//676 362//677 294//506
f 297//678 363//679 311//680
f 310//681 368//682 362//683
f 369//684 311//680 363//679
f 312//685 370//686 368//682
f 371//687 313//688 369//684
f 376//689 382//690 314//691
f 377//692 383//693 371//687
f 350//694 384//695 348//696
f 351//585 385//697 387//698
f 384//695 320//699 318//598
f 385//697 321//700 387//698
f 298//701 384//695 318//598
f 385//697 299//702 319//600
f 300//703 342//704 384//695
f 343//595 301//705 385//697
f 342//704 348//696 384//695
f 385//697 349//596 343//595
f 300//706 346//707 344//708
f 345//709 347//710 301//711
f 322//712 378//641 314//643
f 323//713 379//644 381//714
f 378//641 324//576 316//603
f 379//644 325//579 381//714
f 386//715 322//716 320//699
f 387//698 323//717 381//718
f 352//582 386//715 350//694
f 353//581 387//698 381//719
f 324//576 380//720 352//582
f 353//581 381//714 325//579
f 388//721 402//722 400//723
f 389//724 403//725 415//726
f 400//723 404//727 398//728
f 405//729 401//730 399//731
f 404//727 396//732 398//728
f 405//729 397//733 407//734
f 406//735 394//736 396//732
f 407//734 395//737 409//738
f 408//739 392//740 394//736
f 409//738 393//741 411//742
f 392//740 412//743 390//744
f 413//745 393//741 391//746
f 410//747 418//748 412//749
f 419//750 411//751 413//752
f 408//753 420//754 410//755
f 421//756 409//757 411//758
f 424//759 408//760 406//761
f 425//762 409//763 423//764
f 426//765 406//766 404//767
f 427//768 407//769 425//770
f 428//771 404//772 402//773
f 429//774 405//775 427//776
f 402//773 416//777 428//771
f 417//778 403//779 429//774
f 320//780 442//781 318//598
f 321//782 443//783 445//784
f 390//785 444//786 320//787
f 391//788 445//789 413//790
f 310//599 442//781 312//685
f 443//783 311//602 313//688
f 382//791 414//792 388//721
f 415//726 383//793 389//724
f 412//794 440//795 444//796
f 441//797 413//798 445//799
f 446//800 440//800 438//800
f 447//801 441//801 445//801
f 434//259 438//259 436//259
f 439//259 435//259 437//259
f 448//802 434//803 432//804
f 449//805 435//806 447//807
f 448//802 450//808 430//809
f 449//810 451//811 433//812
f 430//809 416//777 414//813
f 431//814 417//778 451//811
f 448//815 382//690 312//685
f 449//810 383//793 431//814
f 442//781 448//815 312//685
f 443//783 449//805 447//807
f 442//781 444//816 446//817
f 447//807 445//818 443//783
f 416//777 452//819 476//820
f 453//821 417//778 477//822
f 432//823 452//819 450//824
f 433//825 453//821 463//826
f 432//823 460//827 462//828
f 461//829 433//825 463//826
f 436//830 460//831 434//832
f 437//833 461//834 459//835
f 438//836 458//837 436//838
f 439//839 459//840 457//841
f 438//842 454//843 456//844
f 455//845 439//846 457//847
f 440//795 474//848 454//849
f 475//850 441//797 455//849
f 428//771 476//820 464//851
f 477//822 429//774 465//852
f 426//853 464//851 466//854
f 465//852 427//855 467//856
f 424//857 466//858 468//859
f 467//860 425//861 469//862
f 424//863 470//864 422//865
f 425//866 471//867 469//868
f 422//869 472//870 420//871
f 423//872 473//873 471//874
f 420//871 474//848 418//875
f 421//876 475//850 473//873
f 456//877 478//878 458//879
f 457//880 479//881 481//882
f 480//883 484//884 478//878
f 481//882 485//885 483//886
f 484//884 488//887 486//888
f 489//889 485//885 487//890
f 488//887 492//891 486//888
f 489//889 493//892 491//893
f 464//894 486//888 492//891
f 487//890 465//895 493//892
f 484//884 476//896 452//897
f 485//885 477//898 487//890
f 462//899 484//884 452//897
f 463//900 485//885 479//881
f 458//879 462//899 460//259
f 463//900 459//901 461//259
f 474//902 456//903 454//904
f 475//905 457//906 481//907
f 472//908 480//883 474//909
f 481//882 473//910 475//911
f 488//887 472//908 470//912
f 489//889 473//910 483//886
f 490//913 470//912 468//914
f 491//893 471//915 489//889
f 466//916 490//913 468//914
f 491//893 467//917 469//918
f 464//894 492//891 466//916
f 467//917 493//892 465//895
f 392//919 504//920 502//921
f 505//922 393//923 503//924
f 394//925 502//921 500//926
f 503//924 395//927 501//928
f 394//929 498//930 396//931
f 395//932 499//933 501//934
f 396//935 496//936 398//937
f 397//938 497//939 499//940
f 398//941 494//942 400//943
f 399//944 495//945 497//946
f 400//943 506//947 388//948
f 401//949 507//950 495//945
f 502//951 506//952 494//953
f 503//954 507//955 505//956
f 494//953 500//957 502//951
f 501//958 495//959 503//954
f 496//960 498//960 500//960
f 501//961 499//961 497//961
f 382//962 506//947 314//963
f 383//964 507//950 389//965
f 314//643 504//966 322//712
f 505//967 315//968 323//713
f 320//969 504//920 390//970
f 505//922 321//971 391//972
f 47//1 1//15 3//2
f 4//4 2//18 48//5
f 45//3 3//2 5//7
f 6//9 4//4 46//6
f 3//2 9//16 7//11
f 8//13 10//17 4//4
f 1//15 11//19 9//16
f 10//17 12//22 2//18
f 11//19 13//973 15//20
f 16//21 14//974 12//22
f 9//16 15//20 17//23
f 18//25 16//21 10//17
f 21//27 19//975 17//28
f 22//30 16//36 18//31
f 23//33 21//27 15//29
f 24//35 14//976 16//36
f 23//33 25//977 27//37
f 28//38 26//978 24//35
f 27//37 29//979 19//39
f 28//38 22//30 20//40
f 33//42 31//980 29//43
f 34//45 28//51 30//46
f 35//48 33//42 27//44
f 36//50 26//981 28//51
f 37//52 39//55 33//42
f 38//53 36//50 34//45
f 39//55 41//982 31//56
f 40//54 34//45 32//57
f 45//3 43//983 41//59
f 46//6 40//54 42//60
f 47//1 45//3 39//55
f 48//5 38//53 40//54
f 37//62 51//984 49//63
f 38//65 48//985 50//66
f 35//68 53//986 51//69
f 36//71 38//987 52//72
f 25//74 55//988 53//75
f 26//77 36//989 54//78
f 23//80 57//990 55//81
f 24//83 26//991 56//84
f 23//86 13//992 59//87
f 60//89 14//993 24//90
f 13//92 11//994 63//93
f 64//95 12//995 14//96
f 11//98 1//996 65//99
f 66//101 2//997 12//102
f 1//104 47//998 49//105
f 50//107 48//999 2//108
f 174//128 176//132 91//129
f 175//131 90//136 91//129
f 172//133 174//128 89//130
f 173//135 88//1000 90//136
f 85//137 170//142 172//133
f 173//135 171//143 86//139
f 83//141 168//146 170//142
f 171//143 169//147 84//144
f 81//145 166//333 168//146
f 169//147 167//335 82//148
f 79//149 92//156 146//150
f 147//152 93//1001 80//153
f 94//155 148//160 146//150
f 95//157 93//1001 147//152
f 94//155 96//163 150//159
f 151//161 97//1002 95//157
f 98//162 152//212 150//159
f 99//164 97//1002 151//161
f 100//172 154//171 152//1003
f 101//1004 99//1004 153//1004
f 102//170 156//176 154//171
f 103//173 101//167 155//169
f 102//170 104//1005 158//175
f 159//177 105//1006 103//173
f 106//178 160//1007 158//179
f 107//181 105//1008 159//182
f 108//184 162//191 160//185
f 109//187 107//1009 161//188
f 67//190 68//1010 162//191
f 67//192 109//187 163//189
f 128//194 160//201 162//195
f 129//197 111//1011 163//198
f 128//194 179//204 158//200
f 159//202 180//207 129//197
f 156//203 158//200 179//204
f 157//206 127//211 180//207
f 154//208 156//203 126//205
f 155//210 125//216 127//211
f 152//1012 154//208 124//209
f 153//165 123//218 125//1013
f 150//159 152//212 122//214
f 151//161 121//220 123//218
f 148//160 150//159 120//217
f 149//158 119//222 121//220
f 146//150 148//160 118//219
f 147//152 117//225 119//222
f 114//1014 164//1014 146//1014
f 147//1015 165//1015 115//1015
f 114//1016 181//240 177//241
f 177//241 182//242 115//1017
f 162//1018 68//1019 112//236
f 163//198 111//1011 113//1020
f 112//236 68//1019 178//237
f 178//237 68//235 113//234
f 181//240 183//238 178//237
f 182//242 177//241 178//237
f 135//243 137//1021 176//132
f 176//132 137//1021 136//244
f 133//245 135//243 174//128
f 175//131 136//244 134//246
f 133//245 172//133 170//142
f 134//246 132//254 171//143
f 166//248 187//256 185//249
f 186//251 188//258 167//252
f 131//247 170//142 168//250
f 169//253 171//143 132//254
f 190//255 189//259 187//256
f 190//255 145//328 188//258
f 187//256 189//259 69//260
f 188//258 186//251 69//260
f 131//247 185//249 69//260
f 132//254 130//261 69//260
f 142//262 193//1022 191//263
f 192//265 194//1023 143//266
f 195//268 193//1024 142//269
f 196//271 141//1025 143//272
f 197//274 195//1026 140//275
f 198//277 139//1027 141//278
f 71//295 197//297 139//1028
f 144//284 191//1029 70//285
f 145//287 190//1030 70//288
f 191//290 206//312 208//291
f 192//293 70//1031 208//291
f 71//295 199//1032 200//296
f 201//298 199//1033 71//281
f 197//299 200//1034 202//300
f 203//302 201//1035 198//303
f 202//305 204//1036 193//306
f 203//308 196//1037 194//309
f 193//1038 204//1038 206//1038
f 207//1039 205//1039 194//1039
f 204//314 202//1040 200//315
f 205//317 199//1041 201//318
f 199//320 208//291 206//312
f 207//294 208//291 199//320
f 139//1042 140//1042 164//1042
f 165//1043 141//1043 139//1043
f 140//1044 142//1044 211//1044
f 212//1045 143//1045 141//1045
f 144//257 213//331 211//1046
f 145//1047 143//1047 212//1047
f 187//256 166//248 213//331
f 188//258 145//328 214//330
f 209//332 213//338 166//333
f 210//334 82//148 167//335
f 215//337 211//342 213//338
f 216//339 210//334 214//336
f 79//341 164//1048 211//342
f 212//340 165//1049 80//343
f 130//345 72//347 222//367
f 130//261 132//254 223//349
f 133//245 131//247 222//344
f 223//349 132//254 134//246
f 135//351 133//245 220//348
f 221//350 134//246 136//353
f 137//355 135//351 218//352
f 219//354 136//353 137//355
f 218//356 229//356 231//357
f 219//358 217//357 231//357
f 218//359 220//1050 227//360
f 228//362 221//1051 219//363
f 220//280 222//280 225//280
f 226//365 223//365 221//365
f 72//347 224//366 225//366
f 72//347 223//346 226//368
f 224//369 231//1052 229//370
f 230//372 231//1052 224//369
f 183//376 181//390 234//377
f 235//379 182//1053 184//380
f 112//382 183//376 232//378
f 233//381 184//380 113//384
f 112//382 254//383 256//386
f 113//384 111//1054 257//388
f 114//389 252//1055 234//377
f 115//391 182//1053 235//379
f 114//223 116//221 250//393
f 251//395 117//225 115//224
f 116//221 118//219 248//397
f 249//398 119//222 117//225
f 118//219 120//217 246//399
f 247//400 121//220 119//222
f 120//217 122//214 244//401
f 245//402 123//218 121//220
f 124//403 242//407 244//401
f 125//404 123//218 245//402
f 126//406 240//411 242//407
f 127//408 125//404 243//405
f 126//1056 179//413 236//415
f 237//418 180//417 127//1057
f 179//413 128//419 238//414
f 239//416 129//420 180//417
f 128//419 110//387 256//386
f 257//388 111//1054 129//420
f 238//421 256//466 258//422
f 259//424 257//469 239//425
f 236//427 238//421 276//423
f 277//426 239//425 237//429
f 236//427 278//428 274//1058
f 237//1059 241//437 275//439
f 240//433 274//432 272//435
f 241//437 243//1060 273//438
f 244//440 242//1061 272//441
f 273//443 243//1062 245//444
f 244//440 270//442 268//446
f 245//444 247//1063 269//448
f 248//449 246//1064 268//450
f 269//452 247//1065 249//453
f 248//449 266//451 264//455
f 249//453 251//460 265//457
f 250//456 264//455 262//458
f 251//460 253//1066 263//461
f 234//462 252//459 262//458
f 263//461 253//1066 235//464
f 256//466 254//470 260//467
f 261//468 255//473 257//469
f 254//470 232//474 282//471
f 283//472 233//475 255//473
f 232//474 234//462 280//463
f 281//465 235//464 233//475
f 67//476 108//482 284//477
f 285//479 109//485 67//480
f 108//482 106//1067 286//483
f 287//484 107//1068 109//485
f 104//486 288//1069 286//487
f 105//489 107//1070 287//490
f 102//492 290//499 288//493
f 103//495 105//1071 289//496
f 100//498 292//503 290//499
f 101//500 103//495 291//497
f 100//498 98//1072 294//502
f 295//504 99//1073 101//500
f 96//505 296//676 294//506
f 97//508 99//1074 295//509
f 96//511 94//517 298//512
f 299//514 95//520 97//515
f 94//517 92//572 300//518
f 301//519 93//575 95//520
f 309//521 328//1075 338//522
f 309//524 308//523 339//525
f 308//523 338//522 336//527
f 308//523 307//528 337//529
f 307//528 336//527 340//530
f 307//528 306//531 341//532
f 89//533 91//1076 306//534
f 306//534 91//1076 90//536
f 87//538 89//533 340//535
f 341//537 90//536 88//540
f 85//1077 87//1077 334//1077
f 335//1078 88//1078 86//1078
f 83//548 85//542 330//544
f 331//547 86//546 84//550
f 330//552 336//527 338//522
f 339//525 337//529 331//554
f 334//556 340//530 336//527
f 335//557 331//554 337//529
f 332//1079 338//522 328//1075
f 333//551 327//563 329//1080
f 81//561 83//548 332//549
f 333//551 84//550 82//562
f 342//564 344//1081 215//337
f 343//566 210//568 216//339
f 326//559 342//564 209//565
f 327//563 82//562 210//568
f 215//337 344//1081 346//569
f 216//339 80//343 347//570
f 346//571 300//518 92//572
f 347//574 80//1082 93//575
f 324//576 352//582 304//577
f 325//579 77//606 304//580
f 352//582 350//694 78//583
f 353//581 304//580 78//584
f 78//583 350//694 348//586
f 349//588 351//585 78//584
f 305//587 348//586 328//590
f 329//592 349//588 305//589
f 328//1083 348//696 342//704
f 329//1080 327//563 343//566
f 296//597 298//701 318//598
f 319//600 299//702 297//601
f 316//603 324//576 77//578
f 317//605 76//1084 77//606
f 358//607 356//1085 303//608
f 359//610 302//609 303//608
f 303//608 356//1085 354//612
f 355//614 357//611 303//608
f 75//615 354//1086 316//616
f 317//618 355//1087 75//619
f 292//503 294//502 362//621
f 363//623 295//504 293//501
f 364//625 362//1088 368//626
f 369//628 363//1089 365//629
f 366//631 368//1090 370//632
f 371//634 369//1091 367//635
f 372//633 370//632 376//637
f 377//639 371//634 373//636
f 378//641 374//647 376//642
f 379//644 315//968 377//645
f 316//616 354//1086 374//647
f 375//646 355//1087 317//618
f 354//648 356//650 372//633
f 373//636 357//651 355//649
f 356//650 358//652 366//631
f 367//635 359//655 357//651
f 358//652 360//1092 364//653
f 365//654 361//1093 359//655
f 292//503 364//622 360//656
f 293//501 291//497 361//657
f 360//658 358//1094 302//659
f 361//661 74//672 302//662
f 286//664 288//1095 290//665
f 287//667 285//1096 291//668
f 284//1097 290//1097 360//1097
f 361//1098 291//1098 285//1098
f 296//1099 310//681 362//683
f 297//510 295//509 363//1100
f 310//681 312//685 368//682
f 369//684 313//688 311//680
f 312//685 382//690 370//686
f 371//687 383//693 313//688
f 376//689 370//686 382//690
f 377//692 315//1101 383//693
f 350//694 386//715 384//695
f 351//585 349//596 385//697
f 384//695 386//715 320//699
f 385//697 319//600 321//700
f 298//701 300//703 384//695
f 385//697 301//705 299//702
f 300//706 344//708 342//1102
f 343//1103 345//709 301//711
f 322//712 380//720 378//641
f 323//713 315//968 379//644
f 378//641 380//720 324//576
f 379//644 317//605 325//579
f 386//715 380//1104 322//716
f 387//698 321//700 323//717
f 352//582 380//1105 386//715
f 353//581 351//585 387//698
f 388//721 414//792 402//722
f 389//724 401//730 403//725
f 400//723 402//722 404//727
f 405//729 403//725 401//730
f 404//727 406//735 396//732
f 405//729 399//731 397//733
f 406//735 408//739 394//736
f 407//734 397//733 395//737
f 408//739 410//1106 392//740
f 409//738 395//737 393//741
f 392//740 410//1106 412//743
f 413//745 411//742 393//741
f 410//747 420//1107 418//748
f 419//750 421//1108 411//751
f 408//753 422//1109 420//754
f 421//756 423//1110 409//757
f 424//759 422//1111 408//760
f 425//762 407//1112 409//763
f 426//765 424//1113 406//766
f 427//768 405//1114 407//769
f 428//771 426//1115 404//772
f 429//774 403//779 405//775
f 402//773 414//813 416//777
f 417//778 415//1116 403//779
f 320//780 444//1117 442//781
f 321//782 319//600 443//783
f 390//785 412//1118 444//786
f 391//788 321//1119 445//789
f 310//599 318//598 442//781
f 443//783 319//600 311//602
f 382//791 430//809 414//792
f 415//726 431//814 383//793
f 412//794 418//875 440//795
f 441//797 419//1120 413//798
f 446//1121 444//1121 440//1121
f 447//1122 439//1122 441//1122
f 434//1123 446//1123 438//1123
f 439//1124 447//1124 435//1124
f 448//815 446//817 434//1125
f 449//810 433//812 435//1126
f 448//802 432//804 450//808
f 449//810 431//814 451//811
f 430//809 450//808 416//777
f 431//814 415//1116 417//778
f 448//802 430//809 382//791
f 449//805 313//688 383//693
f 442//781 446//817 448//815
f 443//783 313//688 449//805
f 416//777 450//824 452//819
f 453//821 451//1127 417//778
f 432//823 462//828 452//819
f 433//825 451//1127 453//821
f 432//823 434//827 460//827
f 461//829 435//829 433//825
f 436//830 458//1128 460//831
f 437//833 435//1129 461//834
f 438//836 456//1130 458//837
f 439//839 437//1131 459//840
f 438//842 440//1132 454//843
f 455//845 441//1133 439//846
f 440//795 418//875 474//848
f 475//850 419//1120 441//797
f 428//771 416//777 476//820
f 477//822 417//778 429//774
f 426//853 428//771 464//851
f 465//852 429//774 427//855
f 424//857 426//1134 466//858
f 467//860 427//1135 425//861
f 424//863 468//1136 470//864
f 425//866 423//1137 471//867
f 422//869 470//1138 472//870
f 423//872 421//876 473//873
f 420//871 472//870 474//848
f 421//876 419//1120 475//850
f 456//877 480//883 478//878
f 457//880 459//901 479//881
f 480//883 482//1139 484//884
f 481//882 479//881 485//885
f 484//884 482//1139 488//887
f 489//889 483//886 485//885
f 488//887 490//913 492//891
f 489//889 487//890 493//892
f 464//1140 476//896 486//888
f 487//890 477//898 465//1141
f 484//884 486//888 476//896
f 485//885 453//1142 477//898
f 462//899 478//878 484//884
f 463//900 453//1142 485//885
f 458//879 478//878 462//899
f 463//900 479//881 459//901
f 474//902 480//1143 456//903
f 475//905 455//1144 457//906
f 472//908 482//1139 480//883
f 481//882 483//886 473//910
f 488//887 482//1139 472//908
f 489//889 471//915 473//910
f 490//913 488//887 470//912
f 491//893 469//918 471//915
f 466//916 492//891 490//913
f 491//893 493//892 467//917
f 392//919 390//970 504//920
f 505//922 391//972 393//923
f 394//925 392//919 502//921
f 503//924 393//923 395//927
f 394//929 500//1145 498//930
f 395//932 397//1146 499//933
f 396//935 498//1147 496//936
f 397//938 399//1148 497//939
f 398//941 496//1149 494//942
f 399//944 401//949 495//945
f 400//943 494//942 506//947
f 401//949 389//965 507//950
f 502//951 504//1150 506//952
f 503//954 495//959 507//955
f 494//953 496//1151 500//957
f 501//958 497//1152 495//959
f 382//962 388//948 506//947
f 383//964 315//1153 507//950
f 314//643 506//1154 504//966
f 505//967 507//1155 315//968
f 320//969 322//1156 504//920
f 505//922 323//1157 321//971
