# Blender 5.1.0
# www.blender.org
o Sphere
v 0.000000 0.000000 1.000000
v 0.000000 0.555570 0.831470
v 0.000000 0.831470 0.555570
v 0.000000 0.980785 0.195090
v 0.000000 1.000000 0.000000
v 0.000000 0.980785 -0.195090
v 0.000000 0.831470 -0.555570
v 0.000000 0.000000 -1.000000
v 0.038060 0.191342 0.980785
v 0.074658 0.375330 0.923880
v 0.108386 0.544895 0.831470
v 0.137950 0.693520 0.707107
v 0.162212 0.815493 0.555570
v 0.180240 0.906127 0.382683
v 0.191342 0.961940 0.195090
v 0.195090 0.980785 0.000000
v 0.191342 0.961940 -0.195090
v 0.180240 0.906127 -0.382683
v 0.162212 0.815493 -0.555570
v 0.137950 0.693520 -0.707107
v 0.108386 0.544895 -0.831470
v 0.074658 0.375330 -0.923880
v 0.038060 0.191342 -0.980785
v 0.074658 0.180240 0.980785
v 0.146447 0.353553 0.923880
v 0.212608 0.513280 0.831470
v 0.270598 0.653281 0.707107
v 0.318190 0.768178 0.555570
v 0.353553 0.853553 0.382683
v 0.375330 0.906127 0.195090
v 0.382683 0.923879 0.000000
v 0.375330 0.906127 -0.195090
v 0.353553 0.853553 -0.382683
v 0.318190 0.768178 -0.555570
v 0.270598 0.653281 -0.707107
v 0.212608 0.513280 -0.831470
v 0.146447 0.353553 -0.923880
v 0.074658 0.180240 -0.980785
v 0.108386 0.162212 0.980785
v 0.212608 0.318190 0.923880
v 0.308658 0.461940 0.831470
v 0.392847 0.587938 0.707107
v 0.461940 0.691342 0.555570
v 0.513280 0.768178 0.382683
v 0.544895 0.815493 0.195090
v 0.555570 0.831469 0.000000
v 0.544895 0.815493 -0.195090
v 0.513280 0.768178 -0.382683
v 0.461940 0.691342 -0.555570
v 0.392847 0.587938 -0.707107
v 0.308658 0.461940 -0.831470
v 0.212608 0.318190 -0.923880
v 0.108386 0.162212 -0.980785
v 0.137950 0.137950 0.980785
v 0.270598 0.270598 0.923880
v 0.392847 0.392847 0.831470
v 0.500000 0.500000 0.707107
v 0.587938 0.587938 0.555570
v 0.653281 0.653281 0.382683
v 0.693520 0.693520 0.195090
v 0.707107 0.707107 0.000000
v 0.693520 0.693520 -0.195090
v 0.653281 0.653281 -0.382683
v 0.587938 0.587938 -0.555570
v 0.500000 0.500000 -0.707107
v 0.392847 0.392847 -0.831470
v 0.270598 0.270598 -0.923880
v 0.137950 0.137950 -0.980785
v 0.162212 0.108386 0.980785
v 0.318190 0.212608 0.923880
v 0.461940 0.308658 0.831470
v 0.587938 0.392847 0.707107
v 0.691342 0.461940 0.555570
v 0.768178 0.513280 0.382683
v 0.815493 0.544895 0.195090
v 0.831470 0.555570 0.000000
v 0.815493 0.544895 -0.195090
v 0.768178 0.513280 -0.382683
v 0.691342 0.461940 -0.555570
v 0.587938 0.392847 -0.707107
v 0.461940 0.308658 -0.831470
v 0.318190 0.212608 -0.923880
v 0.162212 0.108386 -0.980785
v 0.180240 0.074658 0.980785
v 0.353553 0.146447 0.923880
v 0.513280 0.212607 0.831470
v 0.653281 0.270598 0.707107
v 0.768178 0.318190 0.555570
v 0.853553 0.353553 0.382683
v 0.906127 0.375330 0.195090
v 0.923879 0.382683 0.000000
v 0.906127 0.375330 -0.195090
v 0.853553 0.353553 -0.382683
v 0.768178 0.318190 -0.555570
v 0.653281 0.270598 -0.707107
v 0.513280 0.212607 -0.831470
v 0.353553 0.146447 -0.923880
v 0.180240 0.074658 -0.980785
v 0.191342 0.038060 0.980785
v 0.375330 0.074658 0.923880
v 0.544895 0.108386 0.831470
v 0.693520 0.137950 0.707107
v 0.815493 0.162212 0.555570
v 0.906127 0.180240 0.382683
v 0.961940 0.191342 0.195090
v 0.980785 0.195090 0.000000
v 0.961940 0.191342 -0.195090
v 0.906127 0.180240 -0.382683
v 0.815493 0.162212 -0.555570
v 0.693520 0.137950 -0.707107
v 0.544895 0.108386 -0.831470
v 0.375330 0.074658 -0.923880
v 0.191342 0.038060 -0.980785
v 0.195090 -0.000000 0.980785
v 0.382683 -0.000000 0.923880
v 0.555570 -0.000000 0.831470
v 0.707107 0.000000 0.707107
v 0.831469 -0.000000 0.555570
v 0.923879 0.000000 0.382683
v 0.980785 -0.000000 0.195090
v 1.000000 -0.000000 0.000000
v 0.980785 -0.000000 -0.195090
v 0.923879 0.000000 -0.382683
v 0.831469 -0.000000 -0.555570
v 0.707107 0.000000 -0.707107
v 0.555570 -0.000000 -0.831470
v 0.382683 -0.000000 -0.923880
v 0.195090 -0.000000 -0.980785
v 0.191342 -0.038060 0.980785
v 0.375330 -0.074658 0.923880
v 0.544895 -0.108386 0.831470
v 0.693520 -0.137950 0.707107
v 0.815493 -0.162212 0.555570
v 0.906127 -0.180240 0.382683
v 0.961940 -0.191342 0.195090
v 0.980785 -0.195090 0.000000
v 0.961940 -0.191342 -0.195090
v 0.906127 -0.180240 -0.382683
v 0.815493 -0.162212 -0.555570
v 0.693520 -0.137950 -0.707107
v 0.544895 -0.108386 -0.831470
v 0.375330 -0.074658 -0.923880
v 0.191342 -0.038060 -0.980785
v 0.180240 -0.074658 0.980785
v 0.353553 -0.146447 0.923880
v 0.513280 -0.212608 0.831470
v 0.653281 -0.270598 0.707107
v 0.768178 -0.318190 0.555570
v 0.853553 -0.353553 0.382683
v 0.906127 -0.375330 0.195090
v 0.923879 -0.382683 0.000000
v 0.906127 -0.375330 -0.195090
v 0.853553 -0.353553 -0.382683
v 0.768178 -0.318190 -0.555570
v 0.653281 -0.270598 -0.707107
v 0.513280 -0.212608 -0.831470
v 0.353553 -0.146447 -0.923880
v 0.180240 -0.074658 -0.980785
v 0.162212 -0.108386 0.980785
v 0.318190 -0.212608 0.923880
v 0.461940 -0.308658 0.831470
v 0.587938 -0.392847 0.707107
v 0.691341 -0.461940 0.555570
v 0.768178 -0.513280 0.382683
v 0.815493 -0.544895 0.195090
v 0.831469 -0.555570 0.000000
v 0.815493 -0.544895 -0.195090
v 0.768178 -0.513280 -0.382683
v 0.691341 -0.461940 -0.555570
v 0.587938 -0.392847 -0.707107
v 0.461940 -0.308658 -0.831470
v 0.318190 -0.212608 -0.923880
v 0.162212 -0.108386 -0.980785
v 0.137950 -0.137950 0.980785
v 0.270598 -0.270598 0.923880
v 0.392847 -0.392847 0.831470
v 0.500000 -0.500000 0.707107
v 0.587938 -0.587938 0.555570
v 0.653281 -0.653281 0.382683
v 0.693520 -0.693520 0.195090
v 0.707106 -0.707107 0.000000
v 0.693520 -0.693520 -0.195090
v 0.653281 -0.653281 -0.382683
v 0.587938 -0.587938 -0.555570
v 0.500000 -0.500000 -0.707107
v 0.392847 -0.392847 -0.831470
v 0.270598 -0.270598 -0.923880
v 0.137950 -0.137950 -0.980785
v 0.108386 -0.162212 0.980785
v 0.212607 -0.318190 0.923880
v 0.308658 -0.461940 0.831470
v 0.392847 -0.587938 0.707107
v 0.461940 -0.691342 0.555570
v 0.513280 -0.768178 0.382683
v 0.544895 -0.815493 0.195090
v 0.555570 -0.831469 0.000000
v 0.544895 -0.815493 -0.195090
v 0.513280 -0.768178 -0.382683
v 0.461940 -0.691342 -0.555570
v 0.392847 -0.587938 -0.707107
v 0.308658 -0.461940 -0.831470
v 0.212607 -0.318190 -0.923880
v 0.108386 -0.162212 -0.980785
v 0.074658 -0.180240 0.980785
v 0.146447 -0.353553 0.923880
v 0.212607 -0.513280 0.831470
v 0.270598 -0.653281 0.707107
v 0.318189 -0.768178 0.555570
v 0.353553 -0.853553 0.382683
v 0.375330 -0.906127 0.195090
v 0.382683 -0.923879 0.000000
v 0.375330 -0.906127 -0.195090
v 0.353553 -0.853553 -0.382683
v 0.318189 -0.768178 -0.555570
v 0.270598 -0.653281 -0.707107
v 0.212607 -0.513280 -0.831470
v 0.146447 -0.353553 -0.923880
v 0.074658 -0.180240 -0.980785
v 0.038060 -0.191342 0.980785
v 0.074658 -0.375330 0.923880
v 0.108386 -0.544895 0.831470
v 0.137950 -0.693520 0.707107
v 0.162212 -0.815493 0.555570
v 0.180240 -0.906127 0.382683
v 0.191342 -0.961939 0.195090
v 0.195090 -0.980785 0.000000
v 0.191342 -0.961939 -0.195090
v 0.180240 -0.906127 -0.382683
v 0.162212 -0.815493 -0.555570
v 0.137950 -0.693520 -0.707107
v 0.108386 -0.544895 -0.831470
v 0.074658 -0.375330 -0.923880
v 0.038060 -0.191342 -0.980785
v -0.000000 -0.195090 0.980785
v -0.000000 -0.382683 0.923880
v -0.000000 -0.555570 0.831470
v -0.000000 -0.707107 0.707107
v -0.000000 -0.831469 0.555570
v 0.000000 -0.923879 0.382683
v -0.000000 -0.980785 0.195090
v -0.000000 -0.999999 0.000000
v -0.000000 -0.980785 -0.195090
v 0.000000 -0.923879 -0.382683
v -0.000000 -0.831469 -0.555570
v -0.000000 -0.707107 -0.707107
v -0.000000 -0.555570 -0.831470
v -0.000000 -0.382683 -0.923880
v -0.000000 -0.195090 -0.980785
v -0.038060 -0.191342 0.980785
v -0.074658 -0.375330 0.923880
v -0.108386 -0.544895 0.831470
v -0.137950 -0.693520 0.707107
v -0.162212 -0.815493 0.555570
v -0.180240 -0.906127 0.382683
v -0.191342 -0.961939 0.195090
v -0.195091 -0.980785 0.000000
v -0.191342 -0.961939 -0.195090
v -0.180240 -0.906127 -0.382683
v -0.162212 -0.815493 -0.555570
v -0.137950 -0.693520 -0.707107
v -0.108386 -0.544895 -0.831470
v -0.074658 -0.375330 -0.923880
v -0.038060 -0.191342 -0.980785
v -0.074658 -0.180240 0.980785
v -0.146447 -0.353553 0.923880
v -0.212608 -0.513280 0.831470
v -0.270598 -0.653281 0.707107
v -0.318190 -0.768177 0.555570
v -0.353553 -0.853553 0.382683
v -0.375330 -0.906127 0.195090
v -0.382683 -0.923879 0.000000
v -0.375330 -0.906127 -0.195090
v -0.353553 -0.853553 -0.382683
v -0.318190 -0.768177 -0.555570
v -0.270598 -0.653281 -0.707107
v -0.212608 -0.513280 -0.831470
v -0.146447 -0.353553 -0.923880
v -0.074658 -0.180240 -0.980785
v -0.108386 -0.162212 0.980785
v -0.212608 -0.318190 0.923880
v -0.308658 -0.461939 0.831470
v -0.392847 -0.587938 0.707107
v -0.461940 -0.691341 0.555570
v -0.513280 -0.768178 0.382683
v -0.544895 -0.815493 0.195090
v -0.555570 -0.831469 0.000000
v -0.544895 -0.815493 -0.195090
v -0.513280 -0.768178 -0.382683
v -0.461940 -0.691341 -0.555570
v -0.392847 -0.587938 -0.707107
v -0.308658 -0.461939 -0.831470
v -0.212608 -0.318190 -0.923880
v -0.108386 -0.162212 -0.980785
v -0.137950 -0.137950 0.980785
v -0.270598 -0.270598 0.923880
v -0.392847 -0.392847 0.831470
v -0.500000 -0.500000 0.707107
v -0.587938 -0.587937 0.555570
v -0.653281 -0.653281 0.382683
v -0.693520 -0.693520 0.195090
v -0.707106 -0.707106 0.000000
v -0.693520 -0.693520 -0.195090
v -0.653281 -0.653281 -0.382683
v -0.587938 -0.587937 -0.555570
v -0.500000 -0.500000 -0.707107
v -0.392847 -0.392847 -0.831470
v -0.270598 -0.270598 -0.923880
v -0.137950 -0.137950 -0.980785
v -0.162212 -0.108386 0.980785
v -0.318190 -0.212607 0.923880
v -0.461940 -0.308658 0.831470
v -0.587938 -0.392847 0.707107
v -0.691341 -0.461939 0.555570
v -0.768177 -0.513280 0.382683
v -0.815493 -0.544895 0.195090
v -0.831469 -0.555569 0.000000
v -0.815493 -0.544895 -0.195090
v -0.768177 -0.513280 -0.382683
v -0.691341 -0.461939 -0.555570
v -0.587938 -0.392847 -0.707107
v -0.461940 -0.308658 -0.831470
v -0.318190 -0.212607 -0.923880
v -0.162212 -0.108386 -0.980785
v -0.180240 -0.074658 0.980785
v -0.353553 -0.146447 0.923880
v -0.513280 -0.212607 0.831470
v -0.653281 -0.270598 0.707107
v -0.768177 -0.318189 0.555570
v -0.853553 -0.353553 0.382683
v -0.906127 -0.375330 0.195090
v -0.923879 -0.382683 0.000000
v -0.906127 -0.375330 -0.195090
v -0.853553 -0.353553 -0.382683
v -0.768177 -0.318189 -0.555570
v -0.653281 -0.270598 -0.707107
v -0.513280 -0.212607 -0.831470
v -0.353553 -0.146447 -0.923880
v -0.180240 -0.074658 -0.980785
v -0.191342 -0.038060 0.980785
v -0.375330 -0.074658 0.923880
v -0.544895 -0.108386 0.831470
v -0.693520 -0.137950 0.707107
v -0.815493 -0.162211 0.555570
v -0.906127 -0.180240 0.382683
v -0.961939 -0.191341 0.195090
v -0.980784 -0.195090 0.000000
v -0.961939 -0.191341 -0.195090
v -0.906127 -0.180240 -0.382683
v -0.815493 -0.162211 -0.555570
v -0.693520 -0.137950 -0.707107
v -0.544895 -0.108386 -0.831470
v -0.375330 -0.074658 -0.923880
v -0.191342 -0.038060 -0.980785
v -0.195090 0.000000 0.980785
v -0.382683 0.000000 0.923880
v -0.555570 0.000000 0.831470
v -0.707107 0.000000 0.707107
v -0.831469 0.000000 0.555570
v -0.923879 0.000000 0.382683
v -0.980785 0.000000 0.195090
v -0.999999 0.000000 0.000000
v -0.980785 0.000000 -0.195090
v -0.923879 0.000000 -0.382683
v -0.831469 0.000000 -0.555570
v -0.707107 0.000000 -0.707107
v -0.555570 0.000000 -0.831470
v -0.382683 0.000000 -0.923880
v -0.195090 0.000000 -0.980785
v -0.191342 0.038060 0.980785
v -0.375330 0.074658 0.923880
v -0.544895 0.108386 0.831470
v -0.693520 0.137950 0.707107
v -0.815493 0.162212 0.555570
v -0.906127 0.180240 0.382683
v -0.961939 0.191342 0.195090
v -0.980784 0.195091 0.000000
v -0.961939 0.191342 -0.195090
v -0.906127 0.180240 -0.382683
v -0.815493 0.162212 -0.555570
v -0.693520 0.137950 -0.707107
v -0.544895 0.108386 -0.831470
v -0.375330 0.074658 -0.923880
v -0.191342 0.038060 -0.980785
v -0.180240 0.074658 0.980785
v -0.353553 0.146447 0.923880
v -0.513279 0.212607 0.831470
v -0.653281 0.270598 0.707107
v -0.768177 0.318190 0.555570
v -0.853553 0.353553 0.382683
v -0.906127 0.375330 0.195090
v -0.923878 0.382683 0.000000
v -0.906127 0.375330 -0.195090
v -0.853553 0.353553 -0.382683
v -0.768177 0.318190 -0.555570
v -0.653281 0.270598 -0.707107
v -0.513279 0.212607 -0.831470
v -0.353553 0.146447 -0.923880
v -0.180240 0.074658 -0.980785
v -0.162212 0.108386 0.980785
v -0.318189 0.212607 0.923880
v -0.461939 0.308658 0.831470
v -0.587938 0.392847 0.707107
v -0.691341 0.461940 0.555570
v -0.768177 0.513280 0.382683
v -0.815493 0.544895 0.195090
v -0.831468 0.555570 0.000000
v -0.815493 0.544895 -0.195090
v -0.768177 0.513280 -0.382683
v -0.691341 0.461940 -0.555570
v -0.587938 0.392847 -0.707107
v -0.461939 0.308658 -0.831470
v -0.318189 0.212607 -0.923880
v -0.162212 0.108386 -0.980785
v -0.137950 0.137950 0.980785
v -0.270598 0.270598 0.923880
v -0.392847 0.392847 0.831470
v -0.500000 0.500000 0.707107
v -0.587937 0.587938 0.555570
v -0.653281 0.653281 0.382683
v -0.693519 0.693520 0.195090
v -0.707106 0.707106 0.000000
v -0.693519 0.693520 -0.195090
v -0.653281 0.653281 -0.382683
v -0.587937 0.587938 -0.555570
v -0.500000 0.500000 -0.707107
v -0.392847 0.392847 -0.831470
v -0.270598 0.270598 -0.923880
v -0.137950 0.137950 -0.980785
v -0.108386 0.162212 0.980785
v -0.212607 0.318190 0.923880
v -0.308658 0.461939 0.831470
v -0.392847 0.587938 0.707107
v -0.461939 0.691341 0.555570
v -0.513280 0.768177 0.382683
v -0.544895 0.815493 0.195090
v -0.555569 0.831469 0.000000
v -0.544895 0.815493 -0.195090
v -0.513280 0.768177 -0.382683
v -0.461939 0.691341 -0.555570
v -0.392847 0.587938 -0.707107
v -0.308658 0.461939 -0.831470
v -0.212607 0.318190 -0.923880
v -0.108386 0.162212 -0.980785
v -0.074658 0.180240 0.980785
v -0.146446 0.353553 0.923880
v -0.212607 0.513279 0.831470
v -0.270598 0.653281 0.707107
v -0.318189 0.768177 0.555570
v -0.353553 0.853553 0.382683
v -0.375330 0.906127 0.195090
v -0.382683 0.923879 0.000000
v -0.375330 0.906127 -0.195090
v -0.353553 0.853553 -0.382683
v -0.318189 0.768177 -0.555570
v -0.270598 0.653281 -0.707107
v -0.212607 0.513279 -0.831470
v -0.146446 0.353553 -0.923880
v -0.074658 0.180240 -0.980785
v -0.038060 0.191342 0.980785
v -0.074658 0.375330 0.923880
v -0.108386 0.544895 0.831470
v -0.137950 0.693520 0.707107
v -0.162211 0.815493 0.555570
v -0.180240 0.906127 0.382683
v -0.191341 0.961939 0.195090
v -0.195090 0.980784 0.000000
v -0.191341 0.961939 -0.195090
v -0.180240 0.906127 -0.382683
v -0.162211 0.815493 -0.555570
v -0.137950 0.693520 -0.707107
v -0.108386 0.544895 -0.831470
v -0.074658 0.375330 -0.923880
v -0.038060 0.191342 -0.980785
v 0.000000 0.195090 0.980785
v 0.000000 0.382683 0.923880
v 0.000000 0.707107 0.707107
v 0.000000 0.923879 0.382683
v 0.000000 0.923879 -0.382683
v 0.000000 0.707107 -0.707107
v 0.000000 0.555570 -0.831470
v 0.000000 0.382683 -0.923880
v 0.000000 0.195090 -0.980785
vn -0.0000 -0.0000 1.0000
vn -0.0000 0.5598 0.8286
vn -0.0000 0.8333 0.5528
vn -0.0000 0.9810 0.1939
vn -0.0000 1.0000 -0.0000
vn -0.0000 0.9810 -0.1939
vn -0.0000 0.8333 -0.5528
vn -0.0000 -0.0000 -1.0000
vn 0.0392 0.1971 0.9796
vn 0.0757 0.3804 0.9217
vn 0.1092 0.5490 0.8286
vn 0.1385 0.6965 0.7041
vn 0.1626 0.8173 0.5528
vn 0.1804 0.9070 0.3805
vn 0.1914 0.9622 0.1939
vn 0.1951 0.9808 -0.0000
vn 0.1914 0.9622 -0.1939
vn 0.1804 0.9070 -0.3805
vn 0.1626 0.8173 -0.5528
vn 0.1385 0.6965 -0.7041
vn 0.1092 0.5490 -0.8286
vn 0.0757 0.3804 -0.9217
vn 0.0392 0.1971 -0.9796
vn 0.0769 0.1857 0.9796
vn 0.1484 0.3584 0.9217
vn 0.2142 0.5172 0.8286
vn 0.2718 0.6561 0.7041
vn 0.3189 0.7699 0.5528
vn 0.3539 0.8544 0.3805
vn 0.3754 0.9063 0.1939
vn 0.3827 0.9239 -0.0000
vn 0.3754 0.9063 -0.1939
vn 0.3539 0.8544 -0.3805
vn 0.3189 0.7699 -0.5528
vn 0.2718 0.6561 -0.7041
vn 0.2142 0.5172 -0.8286
vn 0.1484 0.3584 -0.9217
vn 0.0769 0.1857 -0.9796
vn 0.1117 0.1671 0.9796
vn 0.2155 0.3225 0.9217
vn 0.3110 0.4654 0.8286
vn 0.3945 0.5905 0.7041
vn 0.4630 0.6929 0.5528
vn 0.5138 0.7689 0.3805
vn 0.5450 0.8157 0.1939
vn 0.5556 0.8315 -0.0000
vn 0.5450 0.8157 -0.1939
vn 0.5138 0.7689 -0.3805
vn 0.4630 0.6929 -0.5528
vn 0.3945 0.5905 -0.7041
vn 0.3110 0.4654 -0.8286
vn 0.2155 0.3225 -0.9217
vn 0.1117 0.1671 -0.9796
vn 0.1421 0.1421 0.9796
vn 0.2743 0.2743 0.9217
vn 0.3958 0.3958 0.8286
vn 0.5021 0.5021 0.7041
vn 0.5893 0.5893 0.5528
vn 0.6539 0.6539 0.3805
vn 0.6937 0.6937 0.1939
vn 0.7071 0.7071 -0.0000
vn 0.6937 0.6937 -0.1939
vn 0.6539 0.6539 -0.3805
vn 0.5893 0.5893 -0.5528
vn 0.5021 0.5021 -0.7041
vn 0.3958 0.3958 -0.8286
vn 0.2743 0.2743 -0.9217
vn 0.1421 0.1421 -0.9796
vn 0.1671 0.1117 0.9796
vn 0.3225 0.2155 0.9217
vn 0.4654 0.3110 0.8286
vn 0.5905 0.3945 0.7041
vn 0.6929 0.4630 0.5528
vn 0.7689 0.5138 0.3805
vn 0.8157 0.5450 0.1939
vn 0.8315 0.5556 -0.0000
vn 0.8157 0.5450 -0.1939
vn 0.7689 0.5138 -0.3805
vn 0.6929 0.4630 -0.5528
vn 0.5905 0.3945 -0.7041
vn 0.4654 0.3110 -0.8286
vn 0.3225 0.2155 -0.9217
vn 0.1671 0.1117 -0.9796
vn 0.1857 0.0769 0.9796
vn 0.3584 0.1484 0.9217
vn 0.5172 0.2142 0.8286
vn 0.6561 0.2718 0.7041
vn 0.7699 0.3189 0.5528
vn 0.8544 0.3539 0.3805
vn 0.9063 0.3754 0.1939
vn 0.9239 0.3827 -0.0000
vn 0.9063 0.3754 -0.1939
vn 0.8544 0.3539 -0.3805
vn 0.7699 0.3189 -0.5528
vn 0.6561 0.2718 -0.7041
vn 0.5172 0.2142 -0.8286
vn 0.3584 0.1484 -0.9217
vn 0.1857 0.0769 -0.9796
vn 0.1971 0.0392 0.9796
vn 0.3804 0.0757 0.9217
vn 0.5490 0.1092 0.8286
vn 0.6965 0.1385 0.7041
vn 0.8173 0.1626 0.5528
vn 0.9070 0.1804 0.3805
vn 0.9622 0.1914 0.1939
vn 0.9808 0.1951 -0.0000
vn 0.9622 0.1914 -0.1939
vn 0.9070 0.1804 -0.3805
vn 0.8173 0.1626 -0.5528
vn 0.6965 0.1385 -0.7041
vn 0.5490 0.1092 -0.8286
vn 0.3804 0.0757 -0.9217
vn 0.1971 0.0392 -0.9796
vn 0.2010 -0.0000 0.9796
vn 0.3879 -0.0000 0.9217
vn 0.5598 -0.0000 0.8286
vn 0.7101 -0.0000 0.7041
vn 0.8333 -0.0000 0.5528
vn 0.9248 -0.0000 0.3805
vn 0.9810 -0.0000 0.1939
vn 1.0000 -0.0000 -0.0000
vn 0.9810 -0.0000 -0.1939
vn 0.9248 -0.0000 -0.3805
vn 0.8333 -0.0000 -0.5528
vn 0.7101 -0.0000 -0.7041
vn 0.5598 -0.0000 -0.8286
vn 0.3879 -0.0000 -0.9217
vn 0.2010 -0.0000 -0.9796
vn 0.1971 -0.0392 0.9796
vn 0.3804 -0.0757 0.9217
vn 0.5490 -0.1092 0.8286
vn 0.6965 -0.1385 0.7041
vn 0.8173 -0.1626 0.5528
vn 0.9070 -0.1804 0.3805
vn 0.9622 -0.1914 0.1939
vn 0.9808 -0.1951 -0.0000
vn 0.9622 -0.1914 -0.1939
vn 0.9070 -0.1804 -0.3805
vn 0.8173 -0.1626 -0.5528
vn 0.6965 -0.1385 -0.7041
vn 0.5490 -0.1092 -0.8286
vn 0.3804 -0.0757 -0.9217
vn 0.1971 -0.0392 -0.9796
vn 0.1857 -0.0769 0.9796
vn 0.3584 -0.1484 0.9217
vn 0.5172 -0.2142 0.8286
vn 0.6561 -0.2718 0.7041
vn 0.7699 -0.3189 0.5528
vn 0.8544 -0.3539 0.3805
vn 0.9063 -0.3754 0.1939
vn 0.9239 -0.3827 -0.0000
vn 0.9063 -0.3754 -0.1939
vn 0.8544 -0.3539 -0.3805
vn 0.7699 -0.3189 -0.5528
vn 0.6561 -0.2718 -0.7041
vn 0.5172 -0.2142 -0.8286
vn 0.3584 -0.1484 -0.9217
vn 0.1857 -0.0769 -0.9796
vn 0.1671 -0.1117 0.9796
vn 0.3225 -0.2155 0.9217
vn 0.4654 -0.3110 0.8286
vn 0.5905 -0.3945 0.7041
vn 0.6929 -0.4630 0.5528
vn 0.7689 -0.5138 0.3805
vn 0.8157 -0.5450 0.1939
vn 0.8315 -0.5556 -0.0000
vn 0.8157 -0.5450 -0.1939
vn 0.7689 -0.5138 -0.3805
vn 0.6929 -0.4630 -0.5528
vn 0.5905 -0.3945 -0.7041
vn 0.4654 -0.3110 -0.8286
vn 0.3225 -0.2155 -0.9217
vn 0.1671 -0.1117 -0.9796
vn 0.1421 -0.1421 0.9796
vn 0.2743 -0.2743 0.9217
vn 0.3958 -0.3958 0.8286
vn 0.5021 -0.5021 0.7041
vn 0.5893 -0.5893 0.5528
vn 0.6539 -0.6539 0.3805
vn 0.6937 -0.6937 0.1939
vn 0.7071 -0.7071 -0.0000
vn 0.6937 -0.6937 -0.1939
vn 0.6539 -0.6539 -0.3805
vn 0.5893 -0.5893 -0.5528
vn 0.5021 -0.5021 -0.7041
vn 0.3958 -0.3958 -0.8286
vn 0.2743 -0.2743 -0.9217
vn 0.1421 -0.1421 -0.9796
vn 0.1117 -0.1671 0.9796
vn 0.2155 -0.3225 0.9217
vn 0.3110 -0.4654 0.8286
vn 0.3945 -0.5905 0.7041
vn 0.4630 -0.6929 0.5528
vn 0.5138 -0.7689 0.3805
vn 0.5450 -0.8157 0.1939
vn 0.5556 -0.8315 -0.0000
vn 0.5450 -0.8157 -0.1939
vn 0.5138 -0.7689 -0.3805
vn 0.4630 -0.6929 -0.5528
vn 0.3945 -0.5905 -0.7041
vn 0.3110 -0.4654 -0.8286
vn 0.2155 -0.3225 -0.9217
vn 0.1117 -0.1671 -0.9796
vn 0.0769 -0.1857 0.9796
vn 0.1484 -0.3584 0.9217
vn 0.2142 -0.5172 0.8286
vn 0.2718 -0.6561 0.7041
vn 0.3189 -0.7699 0.5528
vn 0.3539 -0.8544 0.3805
vn 0.3754 -0.9063 0.1939
vn 0.3827 -0.9239 -0.0000
vn 0.3754 -0.9063 -0.1939
vn 0.3539 -0.8544 -0.3805
vn 0.3189 -0.7699 -0.5528
vn 0.2718 -0.6561 -0.7041
vn 0.2142 -0.5172 -0.8286
vn 0.1484 -0.3584 -0.9217
vn 0.0769 -0.1857 -0.9796
vn 0.0392 -0.1971 0.9796
vn 0.0757 -0.3804 0.9217
vn 0.1092 -0.5490 0.8286
vn 0.1385 -0.6965 0.7041
vn 0.1626 -0.8173 0.5528
vn 0.1804 -0.9070 0.3805
vn 0.1914 -0.9622 0.1939
vn 0.1951 -0.9808 -0.0000
vn 0.1914 -0.9622 -0.1939
vn 0.1804 -0.9070 -0.3805
vn 0.1626 -0.8173 -0.5528
vn 0.1385 -0.6965 -0.7041
vn 0.1092 -0.5490 -0.8286
vn 0.0757 -0.3804 -0.9217
vn 0.0392 -0.1971 -0.9796
vn -0.0000 -0.2010 0.9796
vn -0.0000 -0.3879 0.9217
vn -0.0000 -0.5598 0.8286
vn -0.0000 -0.7101 0.7041
vn -0.0000 -0.8333 0.5528
vn -0.0000 -0.9248 0.3805
vn -0.0000 -0.9810 0.1939
vn -0.0000 -1.0000 -0.0000
vn -0.0000 -0.9810 -0.1939
vn -0.0000 -0.9248 -0.3805
vn -0.0000 -0.8333 -0.5528
vn -0.0000 -0.7101 -0.7041
vn -0.0000 -0.5598 -0.8286
vn -0.0000 -0.3879 -0.9217
vn -0.0000 -0.2010 -0.9796
vn -0.0392 -0.1971 0.9796
vn -0.0757 -0.3804 0.9217
vn -0.1092 -0.5490 0.8286
vn -0.1385 -0.6965 0.7041
vn -0.1626 -0.8173 0.5528
vn -0.1804 -0.9070 0.3805
vn -0.1914 -0.9622 0.1939
vn -0.1951 -0.9808 -0.0000
vn -0.1914 -0.9622 -0.1939
vn -0.1804 -0.9070 -0.3805
vn -0.1626 -0.8173 -0.5528
vn -0.1385 -0.6965 -0.7041
vn -0.1092 -0.5490 -0.8286
vn -0.0757 -0.3804 -0.9217
vn -0.0392 -0.1971 -0.9796
vn -0.0769 -0.1857 0.9796
vn -0.1484 -0.3584 0.9217
vn -0.2142 -0.5172 0.8286
vn -0.2718 -0.6561 0.7041
vn -0.3189 -0.7699 0.5528
vn -0.3539 -0.8544 0.3805
vn -0.3754 -0.9063 0.1939
vn -0.3827 -0.9239 -0.0000
vn -0.3754 -0.9063 -0.1939
vn -0.3539 -0.8544 -0.3805
vn -0.3189 -0.7699 -0.5528
vn -0.2718 -0.6561 -0.7041
vn -0.2142 -0.5172 -0.8286
vn -0.1484 -0.3584 -0.9217
vn -0.0769 -0.1857 -0.9796
vn -0.1117 -0.1671 0.9796
vn -0.2155 -0.3225 0.9217
vn -0.3110 -0.4654 0.8286
vn -0.3945 -0.5905 0.7041
vn -0.4630 -0.6929 0.5528
vn -0.5138 -0.7689 0.3805
vn -0.5450 -0.8157 0.1939
vn -0.5556 -0.8315 -0.0000
vn -0.5450 -0.8157 -0.1939
vn -0.5138 -0.7689 -0.3805
vn -0.4630 -0.6929 -0.5528
vn -0.3945 -0.5905 -0.7041
vn -0.3110 -0.4654 -0.8286
vn -0.2155 -0.3225 -0.9217
vn -0.1117 -0.1671 -0.9796
vn -0.1421 -0.1421 0.9796
vn -0.2743 -0.2743 0.9217
vn -0.3958 -0.3958 0.8286
vn -0.5021 -0.5021 0.7041
vn -0.5893 -0.5893 0.5528
vn -0.6539 -0.6539 0.3805
vn -0.6937 -0.6937 0.1939
vn -0.7071 -0.7071 -0.0000
vn -0.6937 -0.6937 -0.1939
vn -0.6539 -0.6539 -0.3805
vn -0.5893 -0.5893 -0.5528
vn -0.5021 -0.5021 -0.7041
vn -0.3958 -0.3958 -0.8286
vn -0.2743 -0.2743 -0.9217
vn -0.1421 -0.1421 -0.9796
vn -0.1671 -0.1117 0.9796
vn -0.3225 -0.2155 0.9217
vn -0.4654 -0.3110 0.8286
vn -0.5905 -0.3945 0.7041
vn -0.6929 -0.4630 0.5528
vn -0.7689 -0.5138 0.3805
vn -0.8157 -0.5450 0.1939
vn -0.8315 -0.5556 -0.0000
vn -0.8157 -0.5450 -0.1939
vn -0.7689 -0.5138 -0.3805
vn -0.6929 -0.4630 -0.5528
vn -0.5905 -0.3945 -0.7041
vn -0.4654 -0.3110 -0.8286
vn -0.3225 -0.2155 -0.9217
vn -0.1671 -0.1117 -0.9796
vn -0.1857 -0.0769 0.9796
vn -0.3584 -0.1484 0.9217
vn -0.5172 -0.2142 0.8286
vn -0.6561 -0.2718 0.7041
vn -0.7699 -0.3189 0.5528
vn -0.8544 -0.3539 0.3805
vn -0.9063 -0.3754 0.1939
vn -0.9239 -0.3827 -0.0000
vn -0.9063 -0.3754 -0.1939
vn -0.8544 -0.3539 -0.3805
vn -0.7699 -0.3189 -0.5528
vn -0.6561 -0.2718 -0.7041
vn -0.5172 -0.2142 -0.8286
vn -0.3584 -0.1484 -0.9217
vn -0.1857 -0.0769 -0.9796
vn -0.1971 -0.0392 0.9796
vn -0.3804 -0.0757 0.9217
vn -0.5490 -0.1092 0.8286
vn -0.6965 -0.1385 0.7041
vn -0.8173 -0.1626 0.5528
vn -0.9070 -0.1804 0.3805
vn -0.9622 -0.1914 0.1939
vn -0.9808 -0.1951 -0.0000
vn -0.9622 -0.1914 -0.1939
vn -0.9070 -0.1804 -0.3805
vn -0.8173 -0.1626 -0.5528
vn -0.6965 -0.1385 -0.7041
vn -0.5490 -0.1092 -0.8286
vn -0.3804 -0.0757 -0.9217
vn -0.1971 -0.0392 -0.9796
vn -0.2010 -0.0000 0.9796
vn -0.3879 -0.0000 0.9217
vn -0.5598 -0.0000 0.8286
vn -0.7101 -0.0000 0.7041
vn -0.8333 -0.0000 0.5528
vn -0.9248 -0.0000 0.3805
vn -0.9810 -0.0000 0.1939
vn -1.0000 -0.0000 -0.0000
vn -0.9810 -0.0000 -0.1939
vn -0.9248 -0.0000 -0.3805
vn -0.8333 -0.0000 -0.5528
vn -0.7101 -0.0000 -0.7041
vn -0.5598 -0.0000 -0.8286
vn -0.3879 -0.0000 -0.9217
vn -0.2010 -0.0000 -0.9796
vn -0.1971 0.0392 0.9796
vn -0.3804 0.0757 0.9217
vn -0.5490 0.1092 0.8286
vn -0.6965 0.1385 0.7041
vn -0.8173 0.1626 0.5528
vn -0.9070 0.1804 0.3805
vn -0.9622 0.1914 0.1939
vn -0.9808 0.1951 -0.0000
vn -0.9622 0.1914 -0.1939
vn -0.9070 0.1804 -0.3805
vn -0.8173 0.1626 -0.5528
vn -0.6965 0.1385 -0.7041
vn -0.5490 0.1092 -0.8286
vn -0.3804 0.0757 -0.9217
vn -0.1971 0.0392 -0.9796
vn -0.1857 0.0769 0.9796
vn -0.3584 0.1484 0.9217
vn -0.5172 0.2142 0.8286
vn -0.6561 0.2718 0.7041
vn -0.7699 0.3189 0.5528
vn -0.8544 0.3539 0.3805
vn -0.9063 0.3754 0.1939
vn -0.9239 0.3827 -0.0000
vn -0.9063 0.3754 -0.1939
vn -0.8544 0.3539 -0.3805
vn -0.7699 0.3189 -0.5528
vn -0.6561 0.2718 -0.7041
vn -0.5172 0.2142 -0.8286
vn -0.3584 0.1484 -0.9217
vn -0.1857 0.0769 -0.9796
vn -0.1671 0.1117 0.9796
vn -0.3225 0.2155 0.9217
vn -0.4654 0.3110 0.8286
vn -0.5905 0.3945 0.7041
vn -0.6929 0.4630 0.5528
vn -0.7689 0.5138 0.3805
vn -0.8157 0.5450 0.1939
vn -0.8315 0.5556 -0.0000
vn -0.8157 0.5450 -0.1939
vn -0.7689 0.5138 -0.3805
vn -0.6929 0.4630 -0.5528
vn -0.5905 0.3945 -0.7041
vn -0.4654 0.3110 -0.8286
vn -0.3225 0.2155 -0.9217
vn -0.1671 0.1117 -0.9796
vn -0.1421 0.1421 0.9796
vn -0.2743 0.2743 0.9217
vn -0.3958 0.3958 0.8286
vn -0.5021 0.5021 0.7041
vn -0.5893 0.5893 0.5528
vn -0.6539 0.6539 0.3805
vn -0.6937 0.6937 0.1939
vn -0.7071 0.7071 -0.0000
vn -0.6937 0.6937 -0.1939
vn -0.6539 0.6539 -0.3805
vn -0.5893 0.5893 -0.5528
vn -0.5021 0.5021 -0.7041
vn -0.3958 0.3958 -0.8286
vn -0.2743 0.2743 -0.9217
vn -0.1421 0.1421 -0.9796
vn -0.1117 0.1671 0.9796
vn -0.2155 0.3225 0.9217
vn -0.3110 0.4654 0.8286
vn -0.3945 0.5905 0.7041
vn -0.4630 0.6929 0.5528
vn -0.5138 0.7689 0.3805
vn -0.5450 0.8157 0.1939
vn -0.5556 0.8315 -0.0000
vn -0.5450 0.8157 -0.1939
vn -0.5138 0.7689 -0.3805
vn -0.4630 0.6929 -0.5528
vn -0.3945 0.5905 -0.7041
vn -0.3110 0.4654 -0.8286
vn -0.2155 0.3225 -0.9217
vn -0.1117 0.1671 -0.9796
vn -0.0769 0.1857 0.9796
vn -0.1484 0.3584 0.9217
vn -0.2142 0.5172 0.8286
vn -0.2718 0.6561 0.7041
vn -0.3189 0.7699 0.5528
vn -0.3539 0.8544 0.3805
vn -0.3754 0.9063 0.1939
vn -0.3827 0.9239 -0.0000
vn -0.3754 0.9063 -0.1939
vn -0.3539 0.8544 -0.3805
vn -0.3189 0.7699 -0.5528
vn -0.2718 0.6561 -0.7041
vn -0.2142 0.5172 -0.8286
vn -0.1484 0.3584 -0.9217
vn -0.0769 0.1857 -0.9796
vn -0.0392 0.1971 0.9796
vn -0.0757 0.3804 0.9217
vn -0.1092 0.5490 0.8286
vn -0.1385 0.6965 0.7041
vn -0.1626 0.8173 0.5528
vn -0.1804 0.9070 0.3805
vn -0.1914 0.9622 0.1939
vn -0.1951 0.9808 -0.0000
vn -0.1914 0.9622 -0.1939
vn -0.1804 0.9070 -0.3805
vn -0.1626 0.8173 -0.5528
vn -0.1385 0.6965 -0.7041
vn -0.1092 0.5490 -0.8286
vn -0.0757 0.3804 -0.9217
vn -0.0392 0.1971 -0.9796
vn -0.0000 0.2010 0.9796
vn -0.0000 0.3879 0.9217
vn -0.0000 0.7101 0.7041
vn -0.0000 0.9248 0.3805
vn -0.0000 0.9248 -0.3805
vn -0.0000 0.7101 -0.7041
vn -0.0000 0.5598 -0.8286
vn -0.0000 0.3879 -0.9217
vn -0.0000 0.2010 -0.9796
s 1
f 4//4 16//16 5//5
f 474//474 1//1 9//9
f 8//8 482//482 23//23
f 5//5 17//17 6//6
f 475//475 9//9 10//10
f 6//6 18//18 478//478
f 2//2 10//10 11//11
f 478//478 19//19 7//7
f 476//476 11//11 12//12
f 479//479 19//19 20//20
f 476//476 13//13 3//3
f 479//479 21//21 480//480
f 477//477 13//13 14//14
f 480//480 22//22 481//481
f 4//4 14//14 15//15
f 481//481 23//23 482//482
f 22//22 36//36 37//37
f 15//15 29//29 30//30
f 22//22 38//38 23//23
f 15//15 31//31 16//16
f 9//9 1//1 24//24
f 8//8 23//23 38//38
f 16//16 32//32 17//17
f 9//9 25//25 10//10
f 17//17 33//33 18//18
f 10//10 26//26 11//11
f 19//19 33//33 34//34
f 11//11 27//27 12//12
f 20//20 34//34 35//35
f 12//12 28//28 13//13
f 21//21 35//35 36//36
f 13//13 29//29 14//14
f 34//34 48//48 49//49
f 26//26 42//42 27//27
f 35//35 49//49 50//50
f 27//27 43//43 28//28
f 36//36 50//50 51//51
f 28//28 44//44 29//29
f 37//37 51//51 52//52
f 30//30 44//44 45//45
f 38//38 52//52 53//53
f 31//31 45//45 46//46
f 24//24 1//1 39//39
f 8//8 38//38 53//53
f 31//31 47//47 32//32
f 24//24 40//40 25//25
f 32//32 48//48 33//33
f 25//25 41//41 26//26
f 53//53 67//67 68//68
f 46//46 60//60 61//61
f 39//39 1//1 54//54
f 8//8 53//53 68//68
f 46//46 62//62 47//47
f 39//39 55//55 40//40
f 47//47 63//63 48//48
f 40//40 56//56 41//41
f 49//49 63//63 64//64
f 41//41 57//57 42//42
f 49//49 65//65 50//50
f 43//43 57//57 58//58
f 51//51 65//65 66//66
f 43//43 59//59 44//44
f 52//52 66//66 67//67
f 45//45 59//59 60//60
f 56//56 72//72 57//57
f 64//64 80//80 65//65
f 58//58 72//72 73//73
f 66//66 80//80 81//81
f 58//58 74//74 59//59
f 66//66 82//82 67//67
f 60//60 74//74 75//75
f 67//67 83//83 68//68
f 61//61 75//75 76//76
f 54//54 1//1 69//69
f 8//8 68//68 83//83
f 61//61 77//77 62//62
f 55//55 69//69 70//70
f 62//62 78//78 63//63
f 56//56 70//70 71//71
f 64//64 78//78 79//79
f 76//76 90//90 91//91
f 69//69 1//1 84//84
f 8//8 83//83 98//98
f 76//76 92//92 77//77
f 69//69 85//85 70//70
f 77//77 93//93 78//78
f 70//70 86//86 71//71
f 79//79 93//93 94//94
f 71//71 87//87 72//72
f 79//79 95//95 80//80
f 73//73 87//87 88//88
f 81//81 95//95 96//96
f 73//73 89//89 74//74
f 82//82 96//96 97//97
f 75//75 89//89 90//90
f 83//83 97//97 98//98
f 94//94 110//110 95//95
f 88//88 102//102 103//103
f 96//96 110//110 111//111
f 88//88 104//104 89//89
f 96//96 112//112 97//97
f 90//90 104//104 105//105
f 97//97 113//113 98//98
f 91//91 105//105 106//106
f 84//84 1//1 99//99
f 8//8 98//98 113//113
f 91//91 107//107 92//92
f 84//84 100//100 85//85
f 92//92 108//108 93//93
f 86//86 100//100 101//101
f 94//94 108//108 109//109
f 86//86 102//102 87//87
f 99//99 1//1 114//114
f 8//8 113//113 128//128
f 106//106 122//122 107//107
f 99//99 115//115 100//100
f 107//107 123//123 108//108
f 100//100 116//116 101//101
f 109//109 123//123 124//124
f 101//101 117//117 102//102
f 109//109 125//125 110//110
f 103//103 117//117 118//118
f 111//111 125//125 126//126
f 103//103 119//119 104//104
f 112//112 126//126 127//127
f 105//105 119//119 120//120
f 112//112 128//128 113//113
f 106//106 120//120 121//121
f 118//118 132//132 133//133
f 126//126 140//140 141//141
f 118//118 134//134 119//119
f 126//126 142//142 127//127
f 120//120 134//134 135//135
f 127//127 143//143 128//128
f 121//121 135//135 136//136
f 114//114 1//1 129//129
f 8//8 128//128 143//143
f 121//121 137//137 122//122
f 115//115 129//129 130//130
f 122//122 138//138 123//123
f 116//116 130//130 131//131
f 124//124 138//138 139//139
f 116//116 132//132 117//117
f 124//124 140//140 125//125
f 136//136 152//152 137//137
f 129//129 145//145 130//130
f 137//137 153//153 138//138
f 130//130 146//146 131//131
f 139//139 153//153 154//154
f 131//131 147//147 132//132
f 139//139 155//155 140//140
f 133//133 147//147 148//148
f 141//141 155//155 156//156
f 133//133 149//149 134//134
f 142//142 156//156 157//157
f 135//135 149//149 150//150
f 142//142 158//158 143//143
f 136//136 150//150 151//151
f 129//129 1//1 144//144
f 8//8 143//143 158//158
f 156//156 170//170 171//171
f 148//148 164//164 149//149
f 157//157 171//171 172//172
f 150//150 164//164 165//165
f 158//158 172//172 173//173
f 151//151 165//165 166//166
f 144//144 1//1 159//159
f 8//8 158//158 173//173
f 151//151 167//167 152//152
f 144//144 160//160 145//145
f 152//152 168//168 153//153
f 145//145 161//161 146//146
f 154//154 168//168 169//169
f 146//146 162//162 147//147
f 154//154 170//170 155//155
f 148//148 162//162 163//163
f 167//167 183//183 168//168
f 160//160 176//176 161//161
f 169//169 183//183 184//184
f 161//161 177//177 162//162
f 169//169 185//185 170//170
f 163//163 177//177 178//178
f 171//171 185//185 186//186
f 163//163 179//179 164//164
f 172//172 186//186 187//187
f 165//165 179//179 180//180
f 173//173 187//187 188//188
f 166//166 180//180 181//181
f 159//159 1//1 174//174
f 8//8 173//173 188//188
f 166//166 182//182 167//167
f 159//159 175//175 160//160
f 186//186 202//202 187//187
f 180//180 194//194 195//195
f 187//187 203//203 188//188
f 181//181 195//195 196//196
f 174//174 1//1 189//189
f 8//8 188//188 203//203
f 181//181 197//197 182//182
f 175//175 189//189 190//190
f 182//182 198//198 183//183
f 176//176 190//190 191//191
f 184//184 198//198 199//199
f 176//176 192//192 177//177
f 184//184 200//200 185//185
f 178//178 192//192 193//193
f 186//186 200//200 201//201
f 178//178 194//194 179//179
f 190//190 206//206 191//191
f 199//199 213//213 214//214
f 191//191 207//207 192//192
f 199//199 215//215 200//200
f 193//193 207//207 208//208
f 201//201 215//215 216//216
f 193//193 209//209 194//194
f 202//202 216//216 217//217
f 195//195 209//209 210//210
f 203//203 217//217 218//218
f 196//196 210//210 211//211
f 189//189 1//1 204//204
f 8//8 203//203 218//218
f 196//196 212//212 197//197
f 189//189 205//205 190//190
f 197//197 213//213 198//198
f 210//210 224//224 225//225
f 218//218 232//232 233//233
f 211//211 225//225 226//226
f 204//204 1//1 219//219
f 8//8 218//218 233//233
f 211//211 227//227 212//212
f 204//204 220//220 205//205
f 212//212 228//228 213//213
f 205//205 221//221 206//206
f 214//214 228//228 229//229
f 206//206 222//222 207//207
f 214//214 230//230 215//215
f 208//208 222//222 223//223
f 216//216 230//230 231//231
f 208//208 224//224 209//209
f 217//217 231//231 232//232
f 229//229 243//243 244//244
f 221//221 237//237 222//222
f 229//229 245//245 230//230
f 223//223 237//237 238//238
f 231//231 245//245 246//246
f 223//223 239//239 224//224
f 232//232 246//246 247//247
f 225//225 239//239 240//240
f 232//232 248//248 233//233
f 226//226 240//240 241//241
f 219//219 1//1 234//234
f 8//8 233//233 248//248
f 226//226 242//242 227//227
f 220//220 234//234 235//235
f 227//227 243//243 228//228
f 220//220 236//236 221//221
f 247//247 263//263 248//248
f 241//241 255//255 256//256
f 234//234 1//1 249//249
f 8//8 248//248 263//263
f 241//241 257//257 242//242
f 235//235 249//249 250//250
f 242//242 258//258 243//243
f 236//236 250//250 251//251
f 244//244 258//258 259//259
f 236//236 252//252 237//237
f 244//244 260//260 245//245
f 238//238 252//252 253//253
f 246//246 260//260 261//261
f 238//238 254//254 239//239
f 246//246 262//262 247//247
f 240//240 254//254 255//255
f 251//251 267//267 252//252
f 259//259 275//275 260//260
f 253//253 267//267 268//268
f 261//261 275//275 276//276
f 253//253 269//269 254//254
f 262//262 276//276 277//277
f 255//255 269//269 270//270
f 262//262 278//278 263//263
f 256//256 270//270 271//271
f 249//249 1//1 264//264
f 8//8 263//263 278//278
f 256//256 272//272 257//257
f 250//250 264//264 265//265
f 257//257 273//273 258//258
f 250//250 266//266 251//251
f 259//259 273//273 274//274
f 271//271 285//285 286//286
f 264//264 1//1 279//279
f 8//8 278//278 293//293
f 271//271 287//287 272//272
f 264//264 280//280 265//265
f 272//272 288//288 273//273
f 265//265 281//281 266//266
f 274//274 288//288 289//289
f 266//266 282//282 267//267
f 274//274 290//290 275//275
f 268//268 282//282 283//283
f 276//276 290//290 291//291
f 268//268 284//284 269//269
f 276//276 292//292 277//277
f 270//270 284//284 285//285
f 277//277 293//293 278//278
f 289//289 305//305 290//290
f 283//283 297//297 298//298
f 291//291 305//305 306//306
f 283//283 299//299 284//284
f 291//291 307//307 292//292
f 285//285 299//299 300//300
f 293//293 307//307 308//308
f 286//286 300//300 301//301
f 279//279 1//1 294//294
f 8//8 293//293 308//308
f 286//286 302//302 287//287
f 279//279 295//295 280//280
f 287//287 303//303 288//288
f 281//281 295//295 296//296
f 289//289 303//303 304//304
f 281//281 297//297 282//282
f 8//8 308//308 323//323
f 301//301 317//317 302//302
f 295//295 309//309 310//310
f 302//302 318//318 303//303
f 296//296 310//310 311//311
f 304//304 318//318 319//319
f 296//296 312//312 297//297
f 304//304 320//320 305//305
f 298//298 312//312 313//313
f 306//306 320//320 321//321
f 298//298 314//314 299//299
f 306//306 322//322 307//307
f 300//300 314//314 315//315
f 307//307 323//323 308//308
f 301//301 315//315 316//316
f 294//294 1//1 309//309
f 321//321 335//335 336//336
f 313//313 329//329 314//314
f 321//321 337//337 322//322
f 315//315 329//329 330//330
f 323//323 337//337 338//338
f 316//316 330//330 331//331
f 309//309 1//1 324//324
f 8//8 323//323 338//338
f 316//316 332//332 317//317
f 309//309 325//325 310//310
f 317//317 333//333 318//318
f 310//310 326//326 311//311
f 319//319 333//333 334//334
f 311//311 327//327 312//312
f 319//319 335//335 320//320
f 313//313 327//327 328//328
f 324//324 340//340 325//325
f 332//332 348//348 333//333
f 326//326 340//340 341//341
f 334//334 348//348 349//349
f 326//326 342//342 327//327
f 334//334 350//350 335//335
f 328//328 342//342 343//343
f 336//336 350//350 351//351
f 328//328 344//344 329//329
f 336//336 352//352 337//337
f 330//330 344//344 345//345
f 338//338 352//352 353//353
f 331//331 345//345 346//346
f 324//324 1//1 339//339
f 8//8 338//338 353//353
f 331//331 347//347 332//332
f 343//343 359//359 344//344
f 351//351 367//367 352//352
f 345//345 359//359 360//360
f 353//353 367//367 368//368
f 346//346 360//360 361//361
f 339//339 1//1 354//354
f 8//8 353//353 368//368
f 346//346 362//362 347//347
f 339//339 355//355 340//340
f 347//347 363//363 348//348
f 341//341 355//355 356//356
f 349//349 363//363 364//364
f 341//341 357//357 342//342
f 349//349 365//365 350//350
f 343//343 357//357 358//358
f 351//351 365//365 366//366
f 362//362 378//378 363//363
f 356//356 370//370 371//371
f 364//364 378//378 379//379
f 356//356 372//372 357//357
f 364//364 380//380 365//365
f 358//358 372//372 373//373
f 366//366 380//380 381//381
f 358//358 374//374 359//359
f 366//366 382//382 367//367
f 360//360 374//374 375//375
f 367//367 383//383 368//368
f 361//361 375//375 376//376
f 354//354 1//1 369//369
f 8//8 368//368 383//383
f 361//361 377//377 362//362
f 355//355 369//369 370//370
f 381//381 397//397 382//382
f 375//375 389//389 390//390
f 382//382 398//398 383//383
f 376//376 390//390 391//391
f 369//369 1//1 384//384
f 8//8 383//383 398//398
f 376//376 392//392 377//377
f 370//370 384//384 385//385
f 377//377 393//393 378//378
f 371//371 385//385 386//386
f 379//379 393//393 394//394
f 371//371 387//387 372//372
f 379//379 395//395 380//380
f 373//373 387//387 388//388
f 381//381 395//395 396//396
f 373//373 389//389 374//374
f 386//386 400//400 401//401
f 394//394 408//408 409//409
f 386//386 402//402 387//387
f 394//394 410//410 395//395
f 388//388 402//402 403//403
f 396//396 410//410 411//411
f 388//388 404//404 389//389
f 396//396 412//412 397//397
f 390//390 404//404 405//405
f 398//398 412//412 413//413
f 391//391 405//405 406//406
f 384//384 1//1 399//399
f 8//8 398//398 413//413
f 391//391 407//407 392//392
f 384//384 400//400 385//385
f 392//392 408//408 393//393
f 405//405 419//419 420//420
f 412//412 428//428 413//413
f 406//406 420//420 421//421
f 399//399 1//1 414//414
f 8//8 413//413 428//428
f 406//406 422//422 407//407
f 399//399 415//415 400//400
f 407//407 423//423 408//408
f 401//401 415//415 416//416
f 409//409 423//423 424//424
f 401//401 417//417 402//402
f 409//409 425//425 410//410
f 403//403 417//417 418//418
f 411//411 425//425 426//426
f 403//403 419//419 404//404
f 411//411 427//427 412//412
f 424//424 438//438 439//439
f 416//416 432//432 417//417
f 424//424 440//440 425//425
f 418//418 432//432 433//433
f 426//426 440//440 441//441
f 418//418 434//434 419//419
f 426//426 442//442 427//427
f 420//420 434//434 435//435
f 428//428 442//442 443//443
f 421//421 435//435 436//436
f 414//414 1//1 429//429
f 8//8 428//428 443//443
f 421//421 437//437 422//422
f 414//414 430//430 415//415
f 422//422 438//438 423//423
f 416//416 430//430 431//431
f 442//442 458//458 443//443
f 436//436 450//450 451//451
f 429//429 1//1 444//444
f 8//8 443//443 458//458
f 436//436 452//452 437//437
f 430//430 444//444 445//445
f 437//437 453//453 438//438
f 431//431 445//445 446//446
f 439//439 453//453 454//454
f 431//431 447//447 432//432
f 439//439 455//455 440//440
f 433//433 447//447 448//448
f 441//441 455//455 456//456
f 433//433 449//449 434//434
f 441//441 457//457 442//442
f 435//435 449//449 450//450
f 454//454 470//470 455//455
f 448//448 462//462 463//463
f 456//456 470//470 471//471
f 448//448 464//464 449//449
f 456//456 472//472 457//457
f 450//450 464//464 465//465
f 458//458 472//472 473//473
f 451//451 465//465 466//466
f 444//444 1//1 459//459
f 8//8 458//458 473//473
f 451//451 467//467 452//452
f 444//444 460//460 445//445
f 452//452 468//468 453//453
f 446//446 460//460 461//461
f 454//454 468//468 469//469
f 446//446 462//462 447//447
f 459//459 1//1 474//474
f 8//8 473//473 482//482
f 466//466 6//6 467//467
f 459//459 475//475 460//460
f 467//467 478//478 468//468
f 461//461 475//475 2//2
f 468//468 7//7 469//469
f 462//462 2//2 476//476
f 469//469 479//479 470//470
f 463//463 476//476 3//3
f 471//471 479//479 480//480
f 464//464 3//3 477//477
f 471//471 481//481 472//472
f 465//465 477//477 4//4
f 472//472 482//482 473//473
f 466//466 4//4 5//5
f 4//4 15//15 16//16
f 5//5 16//16 17//17
f 475//475 474//474 9//9
f 6//6 17//17 18//18
f 2//2 475//475 10//10
f 478//478 18//18 19//19
f 476//476 2//2 11//11
f 479//479 7//7 19//19
f 476//476 12//12 13//13
f 479//479 20//20 21//21
f 477//477 3//3 13//13
f 480//480 21//21 22//22
f 4//4 477//477 14//14
f 481//481 22//22 23//23
f 22//22 21//21 36//36
f 15//15 14//14 29//29
f 22//22 37//37 38//38
f 15//15 30//30 31//31
f 16//16 31//31 32//32
f 9//9 24//24 25//25
f 17//17 32//32 33//33
f 10//10 25//25 26//26
f 19//19 18//18 33//33
f 11//11 26//26 27//27
f 20//20 19//19 34//34
f 12//12 27//27 28//28
f 21//21 20//20 35//35
f 13//13 28//28 29//29
f 34//34 33//33 48//48
f 26//26 41//41 42//42
f 35//35 34//34 49//49
f 27//27 42//42 43//43
f 36//36 35//35 50//50
f 28//28 43//43 44//44
f 37//37 36//36 51//51
f 30//30 29//29 44//44
f 38//38 37//37 52//52
f 31//31 30//30 45//45
f 31//31 46//46 47//47
f 24//24 39//39 40//40
f 32//32 47//47 48//48
f 25//25 40//40 41//41
f 53//53 52//52 67//67
f 46//46 45//45 60//60
f 46//46 61//61 62//62
f 39//39 54//54 55//55
f 47//47 62//62 63//63
f 40//40 55//55 56//56
f 49//49 48//48 63//63
f 41//41 56//56 57//57
f 49//49 64//64 65//65
f 43//43 42//42 57//57
f 51//51 50//50 65//65
f 43//43 58//58 59//59
f 52//52 51//51 66//66
f 45//45 44//44 59//59
f 56//56 71//71 72//72
f 64//64 79//79 80//80
f 58//58 57//57 72//72
f 66//66 65//65 80//80
f 58//58 73//73 74//74
f 66//66 81//81 82//82
f 60//60 59//59 74//74
f 67//67 82//82 83//83
f 61//61 60//60 75//75
f 61//61 76//76 77//77
f 55//55 54//54 69//69
f 62//62 77//77 78//78
f 56//56 55//55 70//70
f 64//64 63//63 78//78
f 76//76 75//75 90//90
f 76//76 91//91 92//92
f 69//69 84//84 85//85
f 77//77 92//92 93//93
f 70//70 85//85 86//86
f 79//79 78//78 93//93
f 71//71 86//86 87//87
f 79//79 94//94 95//95
f 73//73 72//72 87//87
f 81//81 80//80 95//95
f 73//73 88//88 89//89
f 82//82 81//81 96//96
f 75//75 74//74 89//89
f 83//83 82//82 97//97
f 94//94 109//109 110//110
f 88//88 87//87 102//102
f 96//96 95//95 110//110
f 88//88 103//103 104//104
f 96//96 111//111 112//112
f 90//90 89//89 104//104
f 97//97 112//112 113//113
f 91//91 90//90 105//105
f 91//91 106//106 107//107
f 84//84 99//99 100//100
f 92//92 107//107 108//108
f 86//86 85//85 100//100
f 94//94 93//93 108//108
f 86//86 101//101 102//102
f 106//106 121//121 122//122
f 99//99 114//114 115//115
f 107//107 122//122 123//123
f 100//100 115//115 116//116
f 109//109 108//108 123//123
f 101//101 116//116 117//117
f 109//109 124//124 125//125
f 103//103 102//102 117//117
f 111//111 110//110 125//125
f 103//103 118//118 119//119
f 112//112 111//111 126//126
f 105//105 104//104 119//119
f 112//112 127//127 128//128
f 106//106 105//105 120//120
f 118//118 117//117 132//132
f 126//126 125//125 140//140
f 118//118 133//133 134//134
f 126//126 141//141 142//142
f 120//120 119//119 134//134
f 127//127 142//142 143//143
f 121//121 120//120 135//135
f 121//121 136//136 137//137
f 115//115 114//114 129//129
f 122//122 137//137 138//138
f 116//116 115//115 130//130
f 124//124 123//123 138//138
f 116//116 131//131 132//132
f 124//124 139//139 140//140
f 136//136 151//151 152//152
f 129//129 144//144 145//145
f 137//137 152//152 153//153
f 130//130 145//145 146//146
f 139//139 138//138 153//153
f 131//131 146//146 147//147
f 139//139 154//154 155//155
f 133//133 132//132 147//147
f 141//141 140//140 155//155
f 133//133 148//148 149//149
f 142//142 141//141 156//156
f 135//135 134//134 149//149
f 142//142 157//157 158//158
f 136//136 135//135 150//150
f 156//156 155//155 170//170
f 148//148 163//163 164//164
f 157//157 156//156 171//171
f 150//150 149//149 164//164
f 158//158 157//157 172//172
f 151//151 150//150 165//165
f 151//151 166//166 167//167
f 144//144 159//159 160//160
f 152//152 167//167 168//168
f 145//145 160//160 161//161
f 154//154 153//153 168//168
f 146//146 161//161 162//162
f 154//154 169//169 170//170
f 148//148 147//147 162//162
f 167//167 182//182 183//183
f 160//160 175//175 176//176
f 169//169 168//168 183//183
f 161//161 176//176 177//177
f 169//169 184//184 185//185
f 163//163 162//162 177//177
f 171//171 170//170 185//185
f 163//163 178//178 179//179
f 172//172 171//171 186//186
f 165//165 164//164 179//179
f 173//173 172//172 187//187
f 166//166 165//165 180//180
f 166//166 181//181 182//182
f 159//159 174//174 175//175
f 186//186 201//201 202//202
f 180//180 179//179 194//194
f 187//187 202//202 203//203
f 181//181 180//180 195//195
f 181//181 196//196 197//197
f 175//175 174//174 189//189
f 182//182 197//197 198//198
f 176//176 175//175 190//190
f 184//184 183//183 198//198
f 176//176 191//191 192//192
f 184//184 199//199 200//200
f 178//178 177//177 192//192
f 186//186 185//185 200//200
f 178//178 193//193 194//194
f 190//190 205//205 206//206
f 199//199 198//198 213//213
f 191//191 206//206 207//207
f 199//199 214//214 215//215
f 193//193 192//192 207//207
f 201//201 200//200 215//215
f 193//193 208//208 209//209
f 202//202 201//201 216//216
f 195//195 194//194 209//209
f 203//203 202//202 217//217
f 196//196 195//195 210//210
f 196//196 211//211 212//212
f 189//189 204//204 205//205
f 197//197 212//212 213//213
f 210//210 209//209 224//224
f 218//218 217//217 232//232
f 211//211 210//210 225//225
f 211//211 226//226 227//227
f 204//204 219//219 220//220
f 212//212 227//227 228//228
f 205//205 220//220 221//221
f 214//214 213//213 228//228
f 206//206 221//221 222//222
f 214//214 229//229 230//230
f 208//208 207//207 222//222
f 216//216 215//215 230//230
f 208//208 223//223 224//224
f 217//217 216//216 231//231
f 229//229 228//228 243//243
f 221//221 236//236 237//237
f 229//229 244//244 245//245
f 223//223 222//222 237//237
f 231//231 230//230 245//245
f 223//223 238//238 239//239
f 232//232 231//231 246//246
f 225//225 224//224 239//239
f 232//232 247//247 248//248
f 226//226 225//225 240//240
f 226//226 241//241 242//242
f 220//220 219//219 234//234
f 227//227 242//242 243//243
f 220//220 235//235 236//236
f 247//247 262//262 263//263
f 241//241 240//240 255//255
f 241//241 256//256 257//257
f 235//235 234//234 249//249
f 242//242 257//257 258//258
f 236//236 235//235 250//250
f 244//244 243//243 258//258
f 236//236 251//251 252//252
f 244//244 259//259 260//260
f 238//238 237//237 252//252
f 246//246 245//245 260//260
f 238//238 253//253 254//254
f 246//246 261//261 262//262
f 240//240 239//239 254//254
f 251//251 266//266 267//267
f 259//259 274//274 275//275
f 253//253 252//252 267//267
f 261//261 260//260 275//275
f 253//253 268//268 269//269
f 262//262 261//261 276//276
f 255//255 254//254 269//269
f 262//262 277//277 278//278
f 256//256 255//255 270//270
f 256//256 271//271 272//272
f 250//250 249//249 264//264
f 257//257 272//272 273//273
f 250//250 265//265 266//266
f 259//259 258//258 273//273
f 271//271 270//270 285//285
f 271//271 286//286 287//287
f 264//264 279//279 280//280
f 272//272 287//287 288//288
f 265//265 280//280 281//281
f 274//274 273//273 288//288
f 266//266 281//281 282//282
f 274//274 289//289 290//290
f 268//268 267//267 282//282
f 276//276 275//275 290//290
f 268//268 283//283 284//284
f 276//276 291//291 292//292
f 270//270 269//269 284//284
f 277//277 292//292 293//293
f 289//289 304//304 305//305
f 283//283 282//282 297//297
f 291//291 290//290 305//305
f 283//283 298//298 299//299
f 291//291 306//306 307//307
f 285//285 284//284 299//299
f 293//293 292//292 307//307
f 286//286 285//285 300//300
f 286//286 301//301 302//302
f 279//279 294//294 295//295
f 287//287 302//302 303//303
f 281//281 280//280 295//295
f 289//289 288//288 303//303
f 281//281 296//296 297//297
f 301//301 316//316 317//317
f 295//295 294//294 309//309
f 302//302 317//317 318//318
f 296//296 295//295 310//310
f 304//304 303//303 318//318
f 296//296 311//311 312//312
f 304//304 319//319 320//320
f 298//298 297//297 312//312
f 306//306 305//305 320//320
f 298//298 313//313 314//314
f 306//306 321//321 322//322
f 300//300 299//299 314//314
f 307//307 322//322 323//323
f 301//301 300//300 315//315
f 321//321 320//320 335//335
f 313//313 328//328 329//329
f 321//321 336//336 337//337
f 315//315 314//314 329//329
f 323//323 322//322 337//337
f 316//316 315//315 330//330
f 316//316 331//331 332//332
f 309//309 324//324 325//325
f 317//317 332//332 333//333
f 310//310 325//325 326//326
f 319//319 318//318 333//333
f 311//311 326//326 327//327
f 319//319 334//334 335//335
f 313//313 312//312 327//327
f 324//324 339//339 340//340
f 332//332 347//347 348//348
f 326//326 325//325 340//340
f 334//334 333//333 348//348
f 326//326 341//341 342//342
f 334//334 349//349 350//350
f 328//328 327//327 342//342
f 336//336 335//335 350//350
f 328//328 343//343 344//344
f 336//336 351//351 352//352
f 330//330 329//329 344//344
f 338//338 337//337 352//352
f 331//331 330//330 345//345
f 331//331 346//346 347//347
f 343//343 358//358 359//359
f 351//351 366//366 367//367
f 345//345 344//344 359//359
f 353//353 352//352 367//367
f 346//346 345//345 360//360
f 346//346 361//361 362//362
f 339//339 354//354 355//355
f 347//347 362//362 363//363
f 341//341 340//340 355//355
f 349//349 348//348 363//363
f 341//341 356//356 357//357
f 349//349 364//364 365//365
f 343//343 342//342 357//357
f 351//351 350//350 365//365
f 362//362 377//377 378//378
f 356//356 355//355 370//370
f 364//364 363//363 378//378
f 356//356 371//371 372//372
f 364//364 379//379 380//380
f 358//358 357//357 372//372
f 366//366 365//365 380//380
f 358//358 373//373 374//374
f 366//366 381//381 382//382
f 360//360 359//359 374//374
f 367//367 382//382 383//383
f 361//361 360//360 375//375
f 361//361 376//376 377//377
f 355//355 354//354 369//369
f 381//381 396//396 397//397
f 375//375 374//374 389//389
f 382//382 397//397 398//398
f 376//376 375//375 390//390
f 376//376 391//391 392//392
f 370//370 369//369 384//384
f 377//377 392//392 393//393
f 371//371 370//370 385//385
f 379//379 378//378 393//393
f 371//371 386//386 387//387
f 379//379 394//394 395//395
f 373//373 372//372 387//387
f 381//381 380//380 395//395
f 373//373 388//388 389//389
f 386//386 385//385 400//400
f 394//394 393//393 408//408
f 386//386 401//401 402//402
f 394//394 409//409 410//410
f 388//388 387//387 402//402
f 396//396 395//395 410//410
f 388//388 403//403 404//404
f 396//396 411//411 412//412
f 390//390 389//389 404//404
f 398//398 397//397 412//412
f 391//391 390//390 405//405
f 391//391 406//406 407//407
f 384//384 399//399 400//400
f 392//392 407//407 408//408
f 405//405 404//404 419//419
f 412//412 427//427 428//428
f 406//406 405//405 420//420
f 406//406 421//421 422//422
f 399//399 414//414 415//415
f 407//407 422//422 423//423
f 401//401 400//400 415//415
f 409//409 408//408 423//423
f 401//401 416//416 417//417
f 409//409 424//424 425//425
f 403//403 402//402 417//417
f 411//411 410//410 425//425
f 403//403 418//418 419//419
f 411//411 426//426 427//427
f 424//424 423//423 438//438
f 416//416 431//431 432//432
f 424//424 439//439 440//440
f 418//418 417//417 432//432
f 426//426 425//425 440//440
f 418//418 433//433 434//434
f 426//426 441//441 442//442
f 420//420 419//419 434//434
f 428//428 427//427 442//442
f 421//421 420//420 435//435
f 421//421 436//436 437//437
f 414//414 429//429 430//430
f 422//422 437//437 438//438
f 416//416 415//415 430//430
f 442//442 457//457 458//458
f 436//436 435//435 450//450
f 436//436 451//451 452//452
f 430//430 429//429 444//444
f 437//437 452//452 453//453
f 431//431 430//430 445//445
f 439//439 438//438 453//453
f 431//431 446//446 447//447
f 439//439 454//454 455//455
f 433//433 432//432 447//447
f 441//441 440//440 455//455
f 433//433 448//448 449//449
f 441//441 456//456 457//457
f 435//435 434//434 449//449
f 454//454 469//469 470//470
f 448//448 447//447 462//462
f 456//456 455//455 470//470
f 448//448 463//463 464//464
f 456//456 471//471 472//472
f 450//450 449//449 464//464
f 458//458 457//457 472//472
f 451//451 450//450 465//465
f 451//451 466//466 467//467
f 444//444 459//459 460//460
f 452//452 467//467 468//468
f 446//446 445//445 460//460
f 454//454 453//453 468//468
f 446//446 461//461 462//462
f 466//466 5//5 6//6
f 459//459 474//474 475//475
f 467//467 6//6 478//478
f 461//461 460//460 475//475
f 468//468 478//478 7//7
f 462//462 461//461 2//2
f 469//469 7//7 479//479
f 463//463 462//462 476//476
f 471//471 470//470 479//479
f 464//464 463//463 3//3
f 471//471 480//480 481//481
f 465//465 464//464 477//477
f 472//472 481//481 482//482
f 466//466 465//465 4//4
